<svg xmlns="http://www.w3.org/2000/svg" width="56.603" height="56.603" viewBox="0 0 56.603 56.603">
    <path id="goal" d="M56.6,6.84c0-.472-.472-.708-.943-.943L51.65,4.953,50.707.943c0-.472-.472-.708-.943-.943a1.767,1.767,0,0,0-1.179.236L40.33,8.49c0,.236-.236.708-.236.943v5.424l-.708.708a23.686,23.686,0,1,0,1.651,1.651l.708-.708h5.424c.236,0,.708-.236.943-.236l8.255-8.255A2.564,2.564,0,0,0,56.6,6.84ZM44.811,33.018A21.226,21.226,0,1,1,23.585,11.792a21.52,21.52,0,0,1,14.151,5.424l-3.3,3.3a17.5,17.5,0,0,0-10.849-4.009A16.509,16.509,0,1,0,40.094,33.018,17.5,17.5,0,0,0,36.084,22.17l3.3-3.3A21.52,21.52,0,0,1,44.811,33.018Zm-14.151,0a6.949,6.949,0,0,1-7.075,7.075,7.075,7.075,0,0,1,0-14.151,6.4,6.4,0,0,1,4.009,1.415l-3.538,3.3h-.472a2.358,2.358,0,0,0,0,4.717,2.228,2.228,0,0,0,2.358-2.358v-.472l3.538-3.538A7.951,7.951,0,0,1,30.66,33.018Zm-1.415-7.311a8.034,8.034,0,0,0-5.66-2.123,9.434,9.434,0,1,0,9.434,9.434,8.034,8.034,0,0,0-2.123-5.66l3.3-3.3a13.724,13.724,0,0,1,3.3,9.2,13.977,13.977,0,1,1-4.953-10.849ZM46.7,14.151H42.452V9.906L48.82,3.538l.708,2.594c0,.472.472.708.943.943l2.594.708Z" fill="#e1953c" />
</svg>
  