<svg xmlns="http://www.w3.org/2000/svg" width="56" height="56" viewBox="0 0 56 56">
    <g id="eye" transform="translate(-4 -4)">
      <path id="Path_29066" data-name="Path 29066" d="M32,47c15.195,0,27.251-13.761,27.757-14.347a1,1,0,0,0,0-1.307C59.251,30.761,47.195,17,32,17S4.749,30.761,4.243,31.347a1,1,0,0,0,0,1.307C4.749,33.239,16.805,47,32,47ZM19,32A13,13,0,1,1,32,45,13.015,13.015,0,0,1,19,32Zm38.641,0A48.414,48.414,0,0,1,42.454,42.736a14.949,14.949,0,0,0,0-21.472A48.422,48.422,0,0,1,57.641,32ZM21.547,21.264a14.948,14.948,0,0,0,0,21.472A48.422,48.422,0,0,1,6.359,32,48.422,48.422,0,0,1,21.547,21.264Z" fill="#e1953c"/>
      <path id="Path_29067" data-name="Path 29067" d="M32,24a8.009,8.009,0,0,0-8,8h2a6.006,6.006,0,0,1,6-6Zm0,14v2a8.009,8.009,0,0,0,8-8H38A6.006,6.006,0,0,1,32,38ZM16.8,14.741l-1.323-1.5c-.531.469-1.046.963-1.532,1.471l1.444,1.383C15.835,15.628,16.31,15.172,16.8,14.741ZM9.208,21.722l1.822.823c.268-.592.563-1.179.879-1.746l-1.746-.975C9.82,20.44,9.5,21.079,9.208,21.722Zm38.009-6.967c.488.431.962.886,1.409,1.355l1.446-1.382c-.486-.509-1-1-1.531-1.472ZM29.087,9.184c.642-.082,1.3-.137,1.948-.164l-.083-2c-.707.029-1.419.089-2.117.177ZM40.6,10.661c.6.243,1.2.515,1.779.808l.9-1.784c-.628-.318-1.279-.614-1.934-.878ZM25.267,10c.623-.19,1.26-.355,1.893-.491l-.42-1.955c-.688.147-1.379.327-2.056.533ZM14.1,17.563,12.54,16.307c-.446.552-.871,1.127-1.263,1.709l1.658,1.119C13.3,18.6,13.687,18.072,14.1,17.563Zm24.66-7.554L39.344,8.1c-.674-.207-1.366-.388-2.057-.536l-.421,1.955C37.5,9.652,38.137,9.818,38.757,10.009Zm-3.818-.823L35.192,7.2c-.7-.088-1.408-.149-2.117-.179l-.085,2C33.643,9.048,34.3,9.1,34.939,9.186ZM54.8,21.744c-.289-.641-.609-1.279-.955-1.9l-1.747.973c.317.57.613,1.158.878,1.747ZM18.32,13.511c.52-.386,1.063-.755,1.618-1.1l-1.051-1.7c-.6.372-1.194.773-1.759,1.192Zm34.415,4.523c-.4-.585-.819-1.16-1.263-1.709L49.915,17.58c.408.506.8,1.035,1.161,1.573ZM45.7,13.523l1.192-1.605c-.565-.42-1.157-.822-1.757-1.193l-1.053,1.7C44.633,12.768,45.177,13.137,45.7,13.523ZM21.642,11.459c.583-.294,1.183-.565,1.782-.807L22.677,8.8c-.65.262-1.3.557-1.936.876ZM34.913,54.816c-.642.082-1.3.137-1.948.164l.083,2c.707-.029,1.419-.089,2.117-.177Zm-5.852,0L28.808,56.8c.7.088,1.408.149,2.117.179l.085-2C30.357,54.952,29.7,54.9,29.061,54.814Zm-1.927-.33c-.635-.137-1.271-.3-1.891-.493L24.656,55.9c.674.207,1.366.388,2.057.536ZM38.733,54c-.623.19-1.26.355-1.893.491l.42,1.955c.688-.147,1.379-.327,2.056-.533Zm-21.95-4.754c-.488-.431-.962-.886-1.409-1.355l-1.446,1.382c.486.509,1,1,1.531,1.472ZM9.2,42.256c.289.641.609,1.279.955,1.9l1.747-.973c-.317-.57-.613-1.158-.878-1.747Zm4.887,4.164c-.408-.506-.8-1.035-1.161-1.573l-1.658,1.119c.4.585.819,1.16,1.263,1.709Zm4.783,6.855,1.053-1.7c-.553-.342-1.1-.711-1.617-1.1l-1.192,1.6C17.675,52.5,18.267,52.9,18.867,53.275Zm3.786,1.919L23.4,53.34c-.6-.243-1.2-.515-1.779-.808l-.9,1.784C21.348,54.634,22,54.93,22.653,55.194ZM45.68,50.489c-.52.386-1.063.755-1.618,1.1l1.051,1.7c.6-.372,1.194-.773,1.759-1.192ZM41.323,55.2c.65-.262,1.3-.557,1.936-.876l-.9-1.786c-.583.294-1.183.565-1.782.807ZM47.2,49.259l1.323,1.5c.531-.469,1.046-.963,1.532-1.471L48.612,47.9C48.165,48.372,47.69,48.828,47.2,49.259Zm7.591-6.981-1.822-.823c-.268.592-.563,1.179-.879,1.746l1.746.975C54.18,43.56,54.5,42.921,54.792,42.278ZM49.9,46.437l1.557,1.256c.446-.552.871-1.127,1.263-1.709l-1.658-1.119C50.7,45.4,50.313,45.928,49.9,46.437ZM6,6h4V4H5A1,1,0,0,0,4,5v5H6Zm54,4V5a1,1,0,0,0-1-1H54V6h4v4ZM5,60h5V58H6V54H4v5A1,1,0,0,0,5,60Zm55-6H58v4H54v2h5a1,1,0,0,0,1-1Z" fill="#e1953c"/>
    </g>
  </svg>
  