<svg xmlns="http://www.w3.org/2000/svg" width="42.9" height="47" viewBox="0 0 42.9 47">
    <g id="task" transform="translate(-3.05 -1)">
      <path id="Path_29068" data-name="Path 29068" d="M3.05,8.76V47a1,1,0,0,0,1,1H32.14a1,1,0,0,0,1-1V34.21H44.95a1,1,0,0,0,1-1V8.76A7.767,7.767,0,0,0,38.32,1H10.82A7.769,7.769,0,0,0,3.05,8.76ZM38.19,3a5.768,5.768,0,0,1,5.76,5.76V32.21H33.14V8.04A5.053,5.053,0,0,1,38.19,3ZM10.81,3H33.27a7.04,7.04,0,0,0-2.13,5.04V46H5.05V8.76A5.774,5.774,0,0,1,10.81,3Z" fill="#e1953c"/>
      <path id="Path_29069" data-name="Path 29069" d="M9.5,38.37H27.26v2H9.5Zm0-7.02H27.26v2H9.5Zm0-7.02H27.26v2H9.5Zm0-7.02H27.26v2H9.5Zm0-7.02H27.26v2H9.5Z" fill="#e1953c"/>
    </g>
  </svg>
  