<svg xmlns="http://www.w3.org/2000/svg" width="526.338" height="339.714" viewBox="0 0 526.338 339.714">
  <g id="_404-error_2_" data-name="404-error (2)" transform="translate(-16.919 -50.739)">
    <path id="Path_30156" data-name="Path 30156" d="M189.221,581.5s43.371-63.853,91.223-66.7,84.744,36.122,109.83,35.009,49.83-92.165,111.331-88.57S603.77,583.489,603.77,583.489Z" transform="translate(-104.123 -248.005)" fill="#e6f0ff"/>
    <path id="Path_30157" data-name="Path 30157" d="M877.219,553.815a3.9,3.9,0,0,0-.536-4.024,5.906,5.906,0,0,0-3.652-2.041,12.7,12.7,0,0,0-4.259.108,16.043,16.043,0,0,0-6.607,2.415,67.582,67.582,0,0,1,2.807-10.009c.108-.3.222-.591.334-.886l6.772,3.03a12.991,12.991,0,0,0,4.708,1.422,4.432,4.432,0,0,0,4.178-2.122,3.9,3.9,0,0,0-.536-4.024,5.9,5.9,0,0,0-3.652-2.041,12.69,12.69,0,0,0-4.259.108,15.8,15.8,0,0,0-6.788,2.543,68.981,68.981,0,0,1,5.172-10.32l6.979,2.807a13,13,0,0,0,4.76,1.24,4.432,4.432,0,0,0,4.094-2.281,3.9,3.9,0,0,0-.69-4,5.9,5.9,0,0,0-3.727-1.9,12.686,12.686,0,0,0-4.252.272,16.306,16.306,0,0,0-6.328,2.53,67.927,67.927,0,0,1,4.939-6.74c.529-.634,1.072-1.254,1.624-1.868l7.273,2.65a12.993,12.993,0,0,0,4.8,1.083,4.433,4.433,0,0,0,4.018-2.415,3.894,3.894,0,0,0-.821-3.975,5.9,5.9,0,0,0-3.788-1.776,12.692,12.692,0,0,0-4.241.412,17.186,17.186,0,0,0-5.647,2.309,65.033,65.033,0,0,1,6.207-5.646l7.466-1.1a13.024,13.024,0,0,0,4.739-1.332,4.436,4.436,0,0,0,2.388-4.035,3.888,3.888,0,0,0-2.614-3.1,5.915,5.915,0,0,0-4.179.243,12.718,12.718,0,0,0-3.537,2.381,15.2,15.2,0,0,0-4.562,6.334c-.008.005-.015.009-.023.015a65.585,65.585,0,0,0-6.593,6.022,16.832,16.832,0,0,0,1.238-6.274,12.7,12.7,0,0,0-.453-4.237,5.906,5.906,0,0,0-2.5-3.353,3.892,3.892,0,0,0-4.058,0,4.434,4.434,0,0,0-1.554,4.422,13,13,0,0,0,2.028,4.481l3.956,6.418a67.835,67.835,0,0,0-6.633,8.682,16.4,16.4,0,0,0-.294-6.717,12.69,12.69,0,0,0-1.49-3.991,5.9,5.9,0,0,0-3.257-2.625,3.9,3.9,0,0,0-3.933,1.005,4.43,4.43,0,0,0-.409,4.668,12.994,12.994,0,0,0,3.077,3.836l5.423,5.23c-.059.1-.122.195-.181.293a69.946,69.946,0,0,0-5.021,10.092,15.5,15.5,0,0,0-1.624-7.312,12.69,12.69,0,0,0-2.267-3.605,5.906,5.906,0,0,0-3.722-1.91,3.9,3.9,0,0,0-3.65,1.781,4.427,4.427,0,0,0,.544,4.653,12.986,12.986,0,0,0,3.791,3.132l6.576,4.151-.056.147-.072.016.056.025a68.731,68.731,0,0,0-3.085,10.524,16.789,16.789,0,0,0-3.663-5.694,12.941,12.941,0,0,0-3.352-2.757,6.025,6.025,0,0,0-4.214-.653,3.966,3.966,0,0,0-2.956,2.89,4.508,4.508,0,0,0,2.023,4.321,13.253,13.253,0,0,0,4.673,1.811l6.955,1.721.2.089a65.532,65.532,0,0,0-1.045,12.033c0,.426.668.5.666.072a65.378,65.378,0,0,1,1.01-11.822l6.425,2.875a12.99,12.99,0,0,0,4.708,1.422A4.429,4.429,0,0,0,877.219,553.815Z" transform="translate(-501.841 -271.99)" fill="#5e9fff"/>
    <path id="Path_30158" data-name="Path 30158" d="M598.094,758.046a7.543,7.543,0,0,0-4.167-1.183H164.253c-7.813.266-18.472,2.2-18.783,3.9-.353,1.93,11.495,2.655,20.461,2.752l58.911.635a47.279,47.279,0,0,1,5.229.245c4.275.556,2.889,2.068-1.034,2.733s-9.173.8-13.873,1.166-9.5,1.184-9.193,2.257c.418,1.459,9.091,1.975,15.871,2.074,28.256.412,56.665.336,84.864-.229,11.885-.238,25.392-.454,34.183,1.283,2.538.5,4.509,1.142,7.41,1.542,22.451,3.092,59.84,1.05,84.048,1.284,25.545.247,51.62.481,76.206-1.03,6.857-.421,14.314-1.139,16.669-2.587,2.5-1.539-1.828-3.154-5.15-4.62s-5.289-3.466.43-4.535a71.83,71.83,0,0,1,11.373-.7c20.084-.134,41.213.963,59.677-.742C599.61,761.543,600.7,759.78,598.094,758.046Z" transform="translate(-77.679 -426.713)" fill="#d6e7ff"/>
    <path id="Path_30159" data-name="Path 30159" d="M562.831,451.844q0-45.892,16.524-64.229T629.7,369.279q16.247,0,26.68,4.007a49.383,49.383,0,0,1,17.018,10.431,55.576,55.576,0,0,1,10.376,13.5,70.375,70.375,0,0,1,6.094,16.524,154.316,154.316,0,0,1,4.5,37.549q0,43.808-14.822,64.12t-51.054,20.312q-20.314,0-32.828-6.478a53.139,53.139,0,0,1-20.531-18.994q-5.821-8.893-9.058-24.319A166.112,166.112,0,0,1,562.831,451.844Zm44.356.11q0,30.743,5.435,42T628.377,505.2a16.514,16.514,0,0,0,11.8-4.776q4.995-4.777,7.356-15.1t2.36-32.169q0-32.059-5.435-43.094t-16.3-11.034q-11.091,0-16.03,11.254T607.187,451.954Z" transform="translate(-329.896 -192.495)" fill="#6ea5f7"/>
    <path id="Path_30160" data-name="Path 30160" d="M676.165,399.664a18.306,18.306,0,0,0-4.858-.631q-11.091,0-16.03,11.254t-4.941,41.667q0,30.743,5.435,42T671.526,505.2a17.181,17.181,0,0,0,4.916-.693q-6.852-2.1-10.94-10.561-5.434-11.252-5.435-42,0-30.412,4.941-41.667Q668.786,401.681,676.165,399.664Zm66.577,14.082a70.379,70.379,0,0,0-6.094-16.524,55.578,55.578,0,0,0-10.376-13.5,49.382,49.382,0,0,0-17.018-10.431q-10.432-4.006-26.68-4.007c-1.639,0-3.245.036-4.823.1q12.957.527,21.772,3.906a49.379,49.379,0,0,1,17.018,10.431,55.581,55.581,0,0,1,10.376,13.5,70.379,70.379,0,0,1,6.094,16.524,154.316,154.316,0,0,1,4.5,37.549q0,43.808-14.822,64.12-13.806,18.921-46.191,20.213,2.376.1,4.868.1,36.232,0,51.054-20.312t14.822-64.12A154.311,154.311,0,0,0,742.741,413.746Z" transform="translate(-382.776 -192.495)" fill="#5193f4"/>
    <path id="Path_30161" data-name="Path 30161" d="M339.978,860.787a8.209,8.209,0,0,1,8.953-8.978,9.065,9.065,0,0,1,6.671,2.324,8.765,8.765,0,0,1,2.342,6.511,10.677,10.677,0,0,1-1.023,4.985,7.293,7.293,0,0,1-2.957,3.028,9.762,9.762,0,0,1-4.82,1.082,11.092,11.092,0,0,1-4.855-.934,7.306,7.306,0,0,1-3.117-2.957A9.819,9.819,0,0,1,339.978,860.787Zm5.358.024a5.812,5.812,0,0,0,.976,3.773,3.694,3.694,0,0,0,5.329.024q.946-1.124.946-4.033A5.358,5.358,0,0,0,351.6,857a3.377,3.377,0,0,0-2.679-1.13,3.254,3.254,0,0,0-2.6,1.148A5.828,5.828,0,0,0,345.336,860.81ZM359.92,863.2a6.285,6.285,0,0,1,1.94-4.737,8.415,8.415,0,0,1,10.941.325,6.84,6.84,0,0,1-.372,9.09,7.347,7.347,0,0,1-5.317,1.851,7.458,7.458,0,0,1-4.9-1.538A6.17,6.17,0,0,1,359.92,863.2Zm4.826-.012a3.788,3.788,0,0,0,.68,2.484,2.228,2.228,0,0,0,3.418.011,3.919,3.919,0,0,0,.668-2.543,3.7,3.7,0,0,0-.674-2.431,2.1,2.1,0,0,0-1.667-.8,2.179,2.179,0,0,0-1.739.81A3.751,3.751,0,0,0,364.745,863.188Zm11.946,11.035V856.883H381.2v1.857a5.981,5.981,0,0,1,1.715-1.585,4.909,4.909,0,0,1,2.33-.556,4.51,4.51,0,0,1,3.9,1.928,7.985,7.985,0,0,1,1.378,4.767,6.874,6.874,0,0,1-1.5,4.784,4.913,4.913,0,0,1-3.8,1.65,5.267,5.267,0,0,1-2.029-.379,4.828,4.828,0,0,1-1.638-1.124v6h-4.86Zm4.826-11.023a3.3,3.3,0,0,0,.627,2.212,2.009,2.009,0,0,0,1.585.722,1.752,1.752,0,0,0,1.408-.692,3.747,3.747,0,0,0,.568-2.348,3.487,3.487,0,0,0-.592-2.241,1.808,1.808,0,0,0-1.443-.716,1.938,1.938,0,0,0-1.538.722A3.589,3.589,0,0,0,381.517,863.2Zm10.456,2.756,4.778-.45a2.354,2.354,0,0,0,.828,1.218,2.459,2.459,0,0,0,1.419.367,2.4,2.4,0,0,0,1.5-.414.923.923,0,0,0,.414-.768.879.879,0,0,0-.544-.8,9.939,9.939,0,0,0-2.07-.5,21.591,21.591,0,0,1-3.483-.809,3.675,3.675,0,0,1-1.644-1.258,3.267,3.267,0,0,1-.668-2.02,3.31,3.31,0,0,1,.721-2.139,4.3,4.3,0,0,1,1.987-1.341,10.565,10.565,0,0,1,3.395-.443,11.746,11.746,0,0,1,3.318.343,4.331,4.331,0,0,1,1.786,1.064,5.577,5.577,0,0,1,1.189,1.952l-4.566.45a1.56,1.56,0,0,0-.592-.887,2.418,2.418,0,0,0-1.372-.378,1.947,1.947,0,0,0-1.189.289.864.864,0,0,0-.372.7.748.748,0,0,0,.473.7,7.651,7.651,0,0,0,2.058.425,14.1,14.1,0,0,1,3.572.756A3.939,3.939,0,0,1,404.7,863.4a3.4,3.4,0,0,1,.621,1.973,3.881,3.881,0,0,1-.656,2.115,4.444,4.444,0,0,1-2.07,1.637,9.948,9.948,0,0,1-3.85.608,9.145,9.145,0,0,1-4.9-.982A4.414,4.414,0,0,1,391.973,865.955Zm15.66-1.289h5.145v3.962a5.808,5.808,0,0,1-.911,3.454,7.427,7.427,0,0,1-3.111,2.235l-1.123-2.105a5.38,5.38,0,0,0,1.886-1.271,2.592,2.592,0,0,0,.574-1.5h-2.46ZM424.062,852.1h8.906a6.1,6.1,0,0,1,4.359,1.384,5.191,5.191,0,0,1,1.449,3.939,5.348,5.348,0,0,1-1.579,4.1,6.84,6.84,0,0,1-4.82,1.479h-2.933v6.434h-5.381V852.1Zm5.381,7.392h1.313a3.378,3.378,0,0,0,2.176-.538,1.734,1.734,0,0,0,.627-1.378,1.925,1.925,0,0,0-.544-1.384,2.823,2.823,0,0,0-2.046-.568h-1.526V859.5Zm15.79,1.455-4.6-.485a5.164,5.164,0,0,1,.751-1.9,4.135,4.135,0,0,1,1.413-1.2,5.922,5.922,0,0,1,1.822-.568,14.672,14.672,0,0,1,2.507-.2,19.94,19.94,0,0,1,3.477.243,4.469,4.469,0,0,1,2.188,1.011,3.546,3.546,0,0,1,.97,1.508,5.449,5.449,0,0,1,.355,1.863v5.547a6.679,6.679,0,0,0,.112,1.39,6.241,6.241,0,0,0,.491,1.283H450.2a4.577,4.577,0,0,1-.355-.739,5.49,5.49,0,0,1-.165-.8,6.236,6.236,0,0,1-1.881,1.3,7.833,7.833,0,0,1-2.969.52,4.971,4.971,0,0,1-3.413-1.041,3.306,3.306,0,0,1-1.165-2.567,3.361,3.361,0,0,1,.84-2.354,5.679,5.679,0,0,1,3.1-1.372q2.708-.544,3.513-.763a16.221,16.221,0,0,0,1.7-.574,1.693,1.693,0,0,0-.366-1.242,1.841,1.841,0,0,0-1.289-.355,3.333,3.333,0,0,0-1.774.379A2.066,2.066,0,0,0,445.233,860.952Zm4.175,2.531q-.994.355-2.07.627a4.781,4.781,0,0,0-1.857.769,1.232,1.232,0,0,0-.006,1.815,1.676,1.676,0,0,0,1.165.361,2.992,2.992,0,0,0,1.5-.39,2.36,2.36,0,0,0,.982-.952,3.187,3.187,0,0,0,.29-1.46v-.77Zm16.724-6.6h4.506v11.863l.012.556a5.24,5.24,0,0,1-.5,2.253,4.749,4.749,0,0,1-1.337,1.733,5.248,5.248,0,0,1-2.117.958,13.158,13.158,0,0,1-2.939.3q-3.785,0-5.2-1.136a3.7,3.7,0,0,1-1.413-3.04q0-.237.024-.639l4.672.532a1.519,1.519,0,0,0,.544.9,2.3,2.3,0,0,0,1.337.367,2.019,2.019,0,0,0,1.555-.556,2.853,2.853,0,0,0,.514-1.94v-1.9a4.688,4.688,0,0,1-3.82,1.81,4.76,4.76,0,0,1-4.069-2.2,7.026,7.026,0,0,1-1.1-4.128,6.366,6.366,0,0,1,1.419-4.471,4.818,4.818,0,0,1,3.714-1.538,5.213,5.213,0,0,1,2.419.5,5.269,5.269,0,0,1,1.78,1.644v-1.857Zm-4.53,6.091a2.982,2.982,0,0,0,.58,2.017,2.056,2.056,0,0,0,3.034-.024,3,3,0,0,0,.609-2.052,3.088,3.088,0,0,0-.639-2.1,2,2,0,0,0-1.561-.727,1.81,1.81,0,0,0-1.473.668A3.51,3.51,0,0,0,461.6,862.975Zm25.891,1.384h-9.651a3.114,3.114,0,0,0,.627,1.727,2.282,2.282,0,0,0,1.821.816,2.735,2.735,0,0,0,1.349-.355,3.173,3.173,0,0,0,.84-.792l4.743.438a6.79,6.79,0,0,1-2.626,2.714,9.544,9.544,0,0,1-4.412.822,9.028,9.028,0,0,1-3.927-.7,5.765,5.765,0,0,1-2.371-2.236,6.746,6.746,0,0,1-.94-3.6,6.327,6.327,0,0,1,1.886-4.767,7.19,7.19,0,0,1,5.21-1.821,9.274,9.274,0,0,1,4.258.816,5.508,5.508,0,0,1,2.377,2.366,8.646,8.646,0,0,1,.816,4.033v.545Zm-4.9-2.307a3.218,3.218,0,0,0-.751-2,2.357,2.357,0,0,0-3.436.308,3.331,3.331,0,0,0-.556,1.691H482.6Zm15.542-9.947h5l6.529,9.593V852.1h5.051v17.339h-5.051l-6.493-9.521v9.521h-5.038ZM517.371,863.2a6.286,6.286,0,0,1,1.94-4.737,8.415,8.415,0,0,1,10.941.325,6.84,6.84,0,0,1-.372,9.09,7.347,7.347,0,0,1-5.317,1.851,7.458,7.458,0,0,1-4.9-1.538A6.171,6.171,0,0,1,517.371,863.2Zm4.826-.012a3.789,3.789,0,0,0,.68,2.484,2.228,2.228,0,0,0,3.418.011,3.919,3.919,0,0,0,.668-2.543,3.7,3.7,0,0,0-.674-2.431,2.1,2.1,0,0,0-1.667-.8,2.179,2.179,0,0,0-1.739.81A3.751,3.751,0,0,0,522.2,863.188Zm17.73-11.083v4.778h2.649v3.524h-2.649v4.45a2.387,2.387,0,0,0,.154,1.062.88.88,0,0,0,.828.4,5.285,5.285,0,0,0,1.49-.307l.354,3.323a15.656,15.656,0,0,1-3.335.391,5.81,5.81,0,0,1-2.65-.461,2.809,2.809,0,0,1-1.259-1.4,8.23,8.23,0,0,1-.408-3.042v-4.418h-1.774v-3.524H535.1v-2.307Zm13.365,0h13.247v3.725h-7.865v3.028h6.718v3.5h-6.718v7.085h-5.382ZM567.686,863.2a6.284,6.284,0,0,1,1.94-4.737,8.415,8.415,0,0,1,10.941.325,6.84,6.84,0,0,1-.372,9.09,7.347,7.347,0,0,1-5.317,1.851,7.458,7.458,0,0,1-4.9-1.538A6.169,6.169,0,0,1,567.686,863.2Zm4.825-.012a3.788,3.788,0,0,0,.68,2.484,2.228,2.228,0,0,0,3.418.011,3.918,3.918,0,0,0,.668-2.543,3.7,3.7,0,0,0-.674-2.431,2.1,2.1,0,0,0-1.667-.8,2.179,2.179,0,0,0-1.739.81A3.754,3.754,0,0,0,572.512,863.188Zm25.158,6.257h-4.494V867.41a6.616,6.616,0,0,1-2.029,1.786,5.4,5.4,0,0,1-2.513.532,4.092,4.092,0,0,1-3.116-1.189,5.151,5.151,0,0,1-1.13-3.661v-8h4.837v6.907a2.538,2.538,0,0,0,.438,1.68,1.553,1.553,0,0,0,1.23.5,1.753,1.753,0,0,0,1.413-.662,3.822,3.822,0,0,0,.55-2.377v-6.044h4.814v12.561Zm2.921-12.561h4.483v2.046a6.671,6.671,0,0,1,2.035-1.792,5.358,5.358,0,0,1,2.507-.538,4.11,4.11,0,0,1,3.129,1.189,5.172,5.172,0,0,1,1.13,3.672v7.984h-4.838v-6.907a2.515,2.515,0,0,0-.437-1.674,1.564,1.564,0,0,0-1.23-.491,1.749,1.749,0,0,0-1.419.662,3.854,3.854,0,0,0-.544,2.377v6.032h-4.814V856.883Zm29.382-4.778v17.339h-4.507v-1.857a6.055,6.055,0,0,1-1.727,1.6,4.93,4.93,0,0,1-2.318.544,4.477,4.477,0,0,1-3.921-1.952,8.112,8.112,0,0,1-1.354-4.743,6.894,6.894,0,0,1,1.5-4.778,4.9,4.9,0,0,1,3.8-1.656,5.294,5.294,0,0,1,2.04.379,4.643,4.643,0,0,1,1.626,1.136V852.1h4.862Zm-4.828,11.023a3.312,3.312,0,0,0-.627-2.206,2,2,0,0,0-1.585-.727,1.746,1.746,0,0,0-1.407.7,3.75,3.75,0,0,0-.568,2.342,3.534,3.534,0,0,0,.586,2.253,1.8,1.8,0,0,0,1.449.715,1.938,1.938,0,0,0,1.537-.721A3.622,3.622,0,0,0,625.146,863.128Zm7.772,1.491h5.145v4.826h-5.145Zm8.064,0h5.145v4.826h-5.145Zm8.068,0h5.145v4.826H649.05Z" transform="translate(-195.226 -484.089)" fill="#6f99d6"/>
    <path id="Path_30162" data-name="Path 30162" d="M721.964,232.74a75.2,75.2,0,0,1-3.839,23.21c-.478,1.436-1.085,2.819-1.65,4.221.237,1.524.483,3.051.723,4.576-4.51-.027-9.021,0-13.53,0q4.351-2.579,8.718-5.124c.18-1.125.364-2.6.471-3.681.721-7.344.4-15.028.249-22.121-.055-2.568-.2-2.249.779-4.839,4.025-10.611,8.46-22.292,10.757-33.736,4.994,0,9.928.1,14.9.129C741.663,213.5,734.507,221.048,721.964,232.74Z" transform="translate(-415.005 -87.325)" fill="#f9d3cb"/>
    <path id="Path_30163" data-name="Path 30163" d="M745.336,221.634c-3.086,4.114-7.149,7.515-10.826,11.117-.04,8.591-.593,16.89-3.141,25.141-2.278-.114-4.458-.286-6.8-.36,1.1-9.675-1.495-18.593.9-28.391,2.724-11.161,9.457-22.253,11.688-33.883,5.056-.01,9.932.1,14.931.125C753.025,205.648,751.591,213.293,745.336,221.634Z" transform="translate(-427.542 -87.333)" fill="#005caf"/>
    <path id="Path_30164" data-name="Path 30164" d="M752.948,239.909a.155.155,0,0,1-.007.028c-2.716,4.614-6.954,7.58-10.881,11.1-.019,8.6-.588,16.89-3.132,25.145q-1-.058-2-.114c2.848-8.367,3.334-16.78,3.2-25.565,12.954-11.569,5.357-12.253,9.7-24.981Q751.4,232.712,752.948,239.909Z" transform="translate(-435.101 -105.622)" fill="#285e8f"/>
    <path id="Path_30165" data-name="Path 30165" d="M711.569,357.955c-3.4,1.3-8.022,1.119-9.253,5.116,4.688,0,9.377-.025,14.065,0a13.552,13.552,0,0,0-.507-5.091A15.3,15.3,0,0,1,711.569,357.955Z" transform="translate(-414.188 -185.652)" fill="#005caf"/>
    <path id="Path_30166" data-name="Path 30166" d="M789.014,264c.539,1.342,1.078,2.6,1.619,3.909q-5.728,1.165-11.457,2.335c2.345-1.873,4.733-3.674,7.039-5.609-.834-1.951-1.779-4.548-2.692-6.339-3.656-7.177-7.763-13.638-11.96-20.391a12.493,12.493,0,0,1-1.946-5.093c-1.686-12.307-1.7-24.86-3.692-37.153,3.361-.5,6.717-.983,10.075-1.483,8.862,15.146,7.245,23.564,3.227,39.894,4.343,7.464,6.778,14.873,8.6,23.425C788.2,259.258,788.694,262.068,789.014,264Z" transform="translate(-452.627 -86.68)" fill="#f9d3cb"/>
    <path id="Path_30167" data-name="Path 30167" d="M767.523,232.851a13.115,13.115,0,0,0,1.986,5.173c4.6,7.775,8.427,16.353,12.486,24.525,1.883-.357,3.748-.751,5.624-1.125a92.436,92.436,0,0,0-10.494-27.343c4.01-16.342,5.635-24.746-3.222-39.9,0-.008,0-.014-.008-.012q-5.721.848-11.453,1.679c.053.3.105.6.159.894,0,.006,0,.019,0,.025C764.584,208.76,765.747,220.819,767.523,232.851Z" transform="translate(-450.522 -86.678)" fill="#005caf"/>
    <path id="Path_30168" data-name="Path 30168" d="M764.149,197.487c.775,1.6.082,4.95,1.391,7.028,3.39,5.379,7.4.475,10.786,3.8,5.766,5.658.1,16.768-1.612,23.564-.052.205-.617,2.93-1.4,2.741,3.616,1.826,2.073-.544,4.925,5.328,1.287,2.649,7.61,16.087,7.658,21.137.672.87.476.164,1,.362a92.637,92.637,0,0,0-10.5-27.356c4-16.347,5.647-24.738-3.231-39.9-3.854.777-8.221.211-11.882,1.116C760.855,195.414,763.645,196.444,764.149,197.487Z" transform="translate(-449.796 -86.689)" fill="#285e8f"/>
    <path id="Path_30169" data-name="Path 30169" d="M803.418,368.159c-3.439,2.047-7.078,2.9-8.108,7.169q6.647-1.364,13.3-2.712a18.009,18.009,0,0,0-2.025-5.1A3.407,3.407,0,0,1,803.418,368.159Z" transform="translate(-470.384 -191.431)" fill="#005caf"/>
    <path id="Path_30170" data-name="Path 30170" d="M700.093,93.027a8.938,8.938,0,0,1,.482,1.093c.9-.532,1.7-1.192,2.547-1.81a2.283,2.283,0,0,1-.7-1.161c.022-1.015.668-2.346-.1-3.082s-1.1.894-1.113,1.4c-1.148-1.249-1.189-2.015-2.257-3.55C696.117,81.839,699.651,92.2,700.093,93.027Z" transform="translate(-411.497 -20.687)" fill="#f9d3cb"/>
    <path id="Path_30171" data-name="Path 30171" d="M703.221,103.554c1.865,4.446,3.7,10.14,8.207,12.289,5.122,2.444,9.433-.015,14.609.128.78-3.915,1.672-7.7,2.5-11.565-5.475,1.1-9.918,3.826-14.739,6.512a62.593,62.593,0,0,1-7.3-9.583C705.4,102.074,704.282,102.724,703.221,103.554Z" transform="translate(-414.735 -30.575)" fill="#60a0ff"/>
    <path id="Path_30172" data-name="Path 30172" d="M704.249,105.172c2.334,4.068,3.384,10.019,7.679,12.763,3.443,2.2,10.024-.246,14.014.3.078-.13.058-.027.014.055-4.267-.22-10.793,3.19-14.619,1.044-4.8-2.69-5.821-9.066-8.192-13.469A4.1,4.1,0,0,1,704.249,105.172Z" transform="translate(-414.689 -32.894)" fill="#498beb"/>
    <path id="Path_30173" data-name="Path 30173" d="M746.271,125.191q2.073,9.36,4.132,18.723c4.955.025,9.935.143,14.873.12,1.278-8.813,1.066-18.912-1.266-27.114-1.051-3.694-5.75-5.472-7.207-6.228s-.364-.171-.37-.171c-1.659-.08-2.812.118-4.277.151C750.213,115.52,748.223,120.347,746.271,125.191Z" transform="translate(-440.75 -35.996)" fill="#f9d3cb"/>
    <path id="Path_30174" data-name="Path 30174" d="M746.46,125.739c1.039,5.368,2.316,10.645,3.445,15.781.364,1.656,1.266,1.9,2.6,2.271,2.821,1.028,5.618.579,8.527.091,2.55-.534,4.386-1.5,4.643-4.583.6-7.195.681-15.8-1.774-22.595-1.261-3.491-3.978-4.591-6.687-5.99-.854-.442-.864-.584-1.784-.33-1.272.352-1.545-1.225-3.422.442-1.152,1.024-5,11.245-5.515,13.01S746.326,125.049,746.46,125.739Z" transform="translate(-440.718 -35.84)" fill="#fff"/>
    <path id="Path_30175" data-name="Path 30175" d="M747.865,193.951q7.9.1,15.793.165,0-1.2,0-2.41-7.9-.074-15.791-.154C747.871,192.351,747.867,193.151,747.865,193.951Z" transform="translate(-441.713 -85.093)" fill="#183957"/>
    <path id="Path_30176" data-name="Path 30176" d="M753.033,152.929c-.238,1.235-.762,1.193-1.531,1.571-.957.47-1.905.173-2.887.168a.44.44,0,0,1-.123-.027,5.59,5.59,0,0,1-2.295-.8c0-5.649.047-18.183.014-22.324s-.066-4.678,0-6.186c.279-6.653-.408-12.183,5.608-15.049.291-.138.2.032.435-.027C749.229,125.525,755.539,139.9,753.033,152.929Zm16.592,2.619a26.015,26.015,0,0,1-9.279-.169,4.414,4.414,0,0,1-3.671-4.8c.494-13.55-2.218-26.758-.5-40.356,1.163.9-1.485-1.133.538.345s5.5,1.135,7.382,6.516c3.545,10.119,4.515,25.221,6.548,36.685A1.49,1.49,0,0,1,769.625,155.548Z" transform="translate(-440.69 -35.816)" fill="#60a0ff"/>
    <path id="Path_30177" data-name="Path 30177" d="M788.561,195.469a20.589,20.589,0,0,1-7.05-.069c0-.369,0-.739,0-1.108a28.454,28.454,0,0,0,7.05.063C788.562,194.726,788.561,195.1,788.561,195.469Z" transform="translate(-462.046 -86.75)" fill="#498beb"/>
    <path id="Path_30178" data-name="Path 30178" d="M796.781,195.828a11.593,11.593,0,0,1,.724-1.7c-.945-.41-1.9-.8-2.845-1.19-.129.529-.156,1.33-.618,1.693-.76.6-2,.918-2.428,1.794s1.375.319,1.7.159c-.226,1.678-.809,2.311-1.589,3.973S794.245,202.978,796.781,195.828Z" transform="translate(-468.111 -85.93)" fill="#f9d3cb"/>
    <path id="Path_30179" data-name="Path 30179" d="M785.477,149.259c1.195.513,2.24,1.051,3.53,1.547,1.679-4.958,6.216-10.673,5.727-16.063-.618-6.812-9.342-11.139-13.915-15.2-1.342,2.3-2.48,4.565-3.739,6.854a41.238,41.238,0,0,0,10.367,8.762Q786.459,142.211,785.477,149.259Z" transform="translate(-459.367 -41.58)" fill="#60a0ff"/>
    <path id="Path_30180" data-name="Path 30180" d="M777.674,136.795c1.5,1.3,8.917,8.008,10.905,8.042q-.893,7.637-1.79,15.272l-.951-.427q.979-7.049,1.967-14.1A50.581,50.581,0,0,1,777.674,136.795Z" transform="translate(-459.727 -52.004)" fill="#498beb"/>
    <path id="Path_30181" data-name="Path 30181" d="M758.048,84.519c2.667-.482,3.589-1.535,4.426-4.379s-2.264-5.473-4.459-5.552c-3.047-.109-3.184-.757-5.035-2.281-.681,1.9-1.782,2.887-.642,5.275C753.324,79.654,756.272,82.6,758.048,84.519Z" transform="translate(-444.118 -13.034)" fill="#005caf"/>
    <path id="Path_30182" data-name="Path 30182" d="M760.665,96.1c.036.516.042.664.086,1.288s.165,2.611.2,3.1a5.314,5.314,0,0,0,.041.578c.6,2.287,3.161,1.936,4.011.025-.181-.76-.451-1.868-.615-2.552s-.338-1.4-.451-1.876l-.174-.729c-.087-.362-.18-.745-.268-1.12C762.555,95.235,761.611,95.68,760.665,96.1Z" transform="translate(-449.448 -26.63)" fill="#f9d3cb"/>
    <path id="Path_30183" data-name="Path 30183" d="M760.871,99.032q.106,1.638.216,3.277a5.448,5.448,0,0,0,3.1-1.646,4.91,4.91,0,0,0,.324-.468c-.126-.517-.341-1.411-.443-1.838s-.092-.383-.172-.721C762.889,98.117,761.877,98.565,760.871,99.032Z" transform="translate(-449.573 -28.34)" fill="#ff8066"/>
    <path id="Path_30184" data-name="Path 30184" d="M754.853,83.864a.969.969,0,0,0-1.413.792c-.432,2.242.108,6.663,1.9,7.527,2.618,1.263,4.23-1.5,5.117-2.651s1.023-1.855.44-2.565-1.44.372-1.693.831C758.712,85.209,756.958,84.972,754.853,83.864Z" transform="translate(-444.997 -19.942)" fill="#f9d3cb"/>
    <path id="Path_30185" data-name="Path 30185" d="M583.2,77.381q-.062,4.816-.025,9.639l4.843-.161,1.136-.038,2.339-.078c1.567-.053-2.4.081,1.721-.057S604.544,86.3,612.619,86s23.047-.93,32.408-1.267a10.679,10.679,0,0,0,.011-4.4c-9.361-.466-24.321-1.094-32.4-1.48s-15.345-.747-19.473-.958-.157-.009-1.725-.089l-2.337-.12-1.136-.059Z" transform="translate(-342.182 -16.1)" fill="#eec99d"/>
    <path id="Path_30186" data-name="Path 30186" d="M589.141,94.895c.967-.032.772-.025,2.339-.078l1.721-.058c4.121-.139,11.33-.389,19.406-.688s23.046-.936,32.408-1.273a.968.968,0,0,1,0,1.253c-9.361.336-24.332.967-32.408,1.267s-15.285.545-19.406.685-.154,0-1.721.057-1.371.046-2.339.078L588,96.175l-4.842.161a7.628,7.628,0,0,1,0-1.244L588,94.931Z" transform="translate(-342.166 -25.417)" fill="#f5b2a4"/>
    <path id="Path_30187" data-name="Path 30187" d="M740.956,82.11a.9.9,0,0,1,.948.973c.017,1.366.013,3.125-.011,4.49a.889.889,0,0,1-.952.96.9.9,0,0,1-.948-.973c-.018-1.365-.013-3.125.011-4.49A.89.89,0,0,1,740.956,82.11Z" transform="translate(-436.949 -18.958)" fill="#e1953c"/>
    <path id="Path_30188" data-name="Path 30188" d="M580.382,82.4c0,1.091-.019,4.687,1.587,4.7s1.61-3.58,1.612-4.672.019-4.687-1.587-4.7S580.384,81.312,580.382,82.4Z" transform="translate(-340.502 -16.312)" fill="#fff"/>
    <path id="Path_30189" data-name="Path 30189" d="M579.257,81.721c0-1.409.08-5.126,2.058-5.111s2.034,3.738,2.031,5.147-.08,5.126-2.058,5.111S579.254,83.131,579.257,81.721Zm.892.008c0,.778-.053,4.222,1.142,4.23s1.163-3.434,1.164-4.211.053-4.222-1.142-4.23S580.15,80.951,580.149,81.729Z" transform="translate(-339.823 -15.634)" fill="#feac2e"/>
    <path id="Path_30190" data-name="Path 30190" d="M595.714,87.241l.91-.03a38.809,38.809,0,0,0-.055-9.143l-.913-.047A37.735,37.735,0,0,1,595.714,87.241Zm3.18-.106.909-.03a38.737,38.737,0,0,0-.054-8.874l-.912-.048A37.778,37.778,0,0,1,598.894,87.135Z" transform="translate(-349.733 -16.487)" fill="#fff"/>
    <path id="Path_30191" data-name="Path 30191" d="M655.771,80.352a28.494,28.494,0,0,0-.02,7.733c7.195-.291,23.771-1.031,28.751-1.226l2.289-.089,2.192-.086a40.785,40.785,0,0,1,.011-4.707l-2.191-.116-2.288-.12C679.537,81.48,662.962,80.716,655.771,80.352Z" transform="translate(-385.895 -17.895)" fill="#feac2e"/>
    <path id="Path_30192" data-name="Path 30192" d="M688.742,87.654q0-1.619.008-3.236l.247.013q-.006,2.356-.012,4.713c-11.132.436-22.26.963-33.392,1.408,0-.5,0-.995,0-1.492C666.647,88.619,677.692,88.086,688.742,87.654Z" transform="translate(-385.953 -20.352)" fill="#e1953c"/>
    <path id="Path_30193" data-name="Path 30193" d="M655.38,78.383a.66.66,0,0,1,.743.666c.009,2.694,0,5.565-.022,8.259a.75.75,0,0,1-1.489-.009c-.009-2.694,0-5.563.021-8.257A.656.656,0,0,1,655.38,78.383Zm29.826,2.233q0,2.5-.012,5.006l1.242-.048q.006-2.446.011-4.892Z" transform="translate(-385.358 -16.705)" fill="#fff"/>
    <path id="Path_30194" data-name="Path 30194" d="M493.346,500.608a49.953,49.953,0,0,1,.909-20.448,36.056,36.056,0,0,1,3.484-9.124l.028.3c.389.767,3.14,6.007,7.893,6.517,3.864.414,7.437-2.47,10.292-4.776a26.484,26.484,0,0,0,2.326-2.119,19.47,19.47,0,0,1-6.728-.938c-2.128-.7-2.868-1.366-4.282-1.8-1.827-.565-4.562-.676-8.56,1.308a25.863,25.863,0,0,1,7.181-6.359,54.8,54.8,0,0,0,7.844-5.6,14.372,14.372,0,0,0,3.861-5.954c.751,1.381,3.414,5.729,7.722,6.192,3.864.414,7.436-2.47,10.292-4.777a26.512,26.512,0,0,0,2.327-2.119,19.459,19.459,0,0,1-6.728-.938c-2.128-.7-2.868-1.367-4.282-1.8-1.867-.577-4.681-.682-8.823,1.44A48.128,48.128,0,0,0,518.57,439c-.066-1.72-.236-3.428-.415-5.135,1.017,1.715,3.562,5.279,7.44,5.7s7.436-2.47,10.292-4.777a26.635,26.635,0,0,0,2.327-2.119,19.461,19.461,0,0,1-6.728-.938c-2.128-.7-2.868-1.366-4.282-1.8-1.935-.6-4.888-.688-9.282,1.682-.087-.88-.165-1.761-.222-2.644-.246-3.844.258-7.669,2.828-10.682l.06.626c.389.767,3.14,6.007,7.893,6.517,3.864.414,7.436-2.47,10.292-4.776a26.58,26.58,0,0,0,2.327-2.119,19.472,19.472,0,0,1-6.728-.938c-2.128-.7-2.868-1.366-4.282-1.8-1.781-.551-4.424-.67-8.259,1.161a25.66,25.66,0,0,1,7.192-4.23l.845.567c.874.193,6.9,1.436,10.444-2.05,2.881-2.834,2.916-7.608,2.944-11.424a27.664,27.664,0,0,0-.17-3.268,20.247,20.247,0,0,1-5.19,4.792c-1.965,1.25-2.989,1.4-4.273,2.254-1.76,1.164-3.785,3.487-4.773,8.606a27.35,27.35,0,0,0-7.111,4.111,12.8,12.8,0,0,0-4.237,6.806c-.159-1.994-.832-5.54-3.581-7.4-2.981-2.018-7.156-1.21-10.493-.564a24.555,24.555,0,0,0-2.823.723,18.035,18.035,0,0,1,5.1,3.69c1.437,1.5,1.752,2.364,2.719,3.336,1.357,1.364,3.821,2.756,8.681,2.652l.045-.11a48,48,0,0,0,.525,8.745q.342,3.238.392,6.5l-.032-.162c-.429-.672-3.443-5.249-7.871-5.285-3.6-.029-6.628,2.956-9.049,5.343a24.52,24.52,0,0,0-1.95,2.166,18.026,18.026,0,0,1,6.286.249c2.025.449,2.768,1,4.111,1.271,1.856.378,4.621.183,8.514-2.475q0,2.047-.117,4.093a25.881,25.881,0,0,1-.529,4.088l-.122.066.03.318a13.044,13.044,0,0,1-2.755,5.542,24.549,24.549,0,0,1-4.989,4.215l-.106-.909c-.376-.7-3.025-5.5-7.436-5.88-3.586-.308-6.837,2.433-9.437,4.624a24.629,24.629,0,0,0-2.113,2.007,18.034,18.034,0,0,1,6.248.737c1.984.605,2.682,1.209,4,1.586,1.539.441,3.757.523,6.874-.878l-.847.544a32.937,32.937,0,0,0-7.521,5.976,18.515,18.515,0,0,0-1.57,2.149l-.035.019,0,.03a32.479,32.479,0,0,0-3.336,7.8A50.57,50.57,0,0,0,492.8,500.7.276.276,0,0,0,493.346,500.608ZM112.98,448.626a101.586,101.586,0,0,0-9.466-6.746,27.216,27.216,0,0,1-2.747-4.643c1.481-.388,2.769-2.158,2.128-4.57a21.4,21.4,0,0,0-1.764-3.969,10.356,10.356,0,0,1-.3-9.425,36.539,36.539,0,0,0-3.463,5.9c-.893,2.086-2.244,4.822-1.834,6.977.4,2.081,1.662,5.042,4.4,5.163a27.614,27.614,0,0,0,1.908,3.53q-4.092-2.47-8.421-4.562a.329.329,0,0,0-.061-.131,27.033,27.033,0,0,1-3.082-5.1c1.485-.383,2.777-2.155,2.136-4.572a21.369,21.369,0,0,0-1.764-3.969,10.357,10.357,0,0,1-.3-9.424,36.51,36.51,0,0,0-3.463,5.9c-.893,2.085-2.244,4.822-1.834,6.977.4,2.081,1.662,5.042,4.4,5.163A27.568,27.568,0,0,0,92,435.616q-4.156-1.93-8.494-3.5a27.029,27.029,0,0,1-3.079-5.1c1.485-.384,2.778-2.156,2.136-4.572A21.405,21.405,0,0,0,80.8,418.48a10.355,10.355,0,0,1-.3-9.425,36.508,36.508,0,0,0-3.463,5.9c-.893,2.086-2.244,4.822-1.834,6.977.4,2.082,1.662,5.043,4.4,5.164a27.6,27.6,0,0,0,2.6,4.562c-1.389-.481-2.788-.94-4.2-1.363-1.182-.353-2.379-.663-3.576-.976a27.508,27.508,0,0,1-3.957-3.725c1.348-.746,2.133-2.757.857-4.886a21.357,21.357,0,0,0-2.8-3.322A10.024,10.024,0,0,1,65.7,408.51,34.848,34.848,0,0,0,63.9,415c-.314,2.21-.9,5.155.078,7.1.948,1.877,2.984,4.367,5.7,3.784a27.737,27.737,0,0,0,2.92,2.959,108.9,108.9,0,0,0-11.228-2.091,27.511,27.511,0,0,1-4.7-3.265c1.243-.912,1.748-2.994.174-4.918a21.58,21.58,0,0,0-3.257-2.893,9.938,9.938,0,0,1-4.072-8.351c-.444,2.2-1.533,4.581-1.536,6.794a12.608,12.608,0,0,0,1.717,6.794c1.208,1.718,3.59,3.894,6.221,2.962a28.289,28.289,0,0,0,3.512,2.635q-5.056-.587-10.178-.71a.353.353,0,0,0-.084-.064,27.751,27.751,0,0,1-5.11-3.141c1.2-.967,1.6-3.067-.072-4.909a21.685,21.685,0,0,0-3.41-2.725,9.923,9.923,0,0,1-4.5-8.121c-.333,2.208-1.269,4.678-1.16,6.882a12.378,12.378,0,0,0,2.031,6.642c1.3,1.653,3.794,3.7,6.381,2.65a28.518,28.518,0,0,0,4.157,2.732q-5.347-.045-10.711.415a32.078,32.078,0,0,1-3.93-.093c.263-1.37-.632-3.033-2.931-3.571a23.936,23.936,0,0,0-4.5-.363,10.379,10.379,0,0,1-8.492-4.117,31.539,31.539,0,0,0,3.267,5.637c1.34,1.715,3,4.116,5.131,4.772,2.058.634,5.38.945,7.027-1.287a31.227,31.227,0,0,0,4.4.027c.015,0,.027.006.043,0l.217-.016.106-.008q3.2-.269,6.4-.351a33.624,33.624,0,0,0-3.969,2.46c-.015-.009-.028-.02-.044-.029-2.54-1.422-5.368.681-6.875,2.384a13.625,13.625,0,0,0-2.678,6.694c-.326,2.238.36,4.772.473,7.026a11.054,11.054,0,0,1,5.283-8.128,23.984,23.984,0,0,0,3.662-2.675c1.729-1.707,1.673-3.693.761-4.774a32.287,32.287,0,0,1,5.141-3q5.242-.059,10.445.381a33.784,33.784,0,0,0-4.949,2.935c-2.46-1.075-5.21.967-6.71,2.615a13.822,13.822,0,0,0-2.84,6.631c-.377,2.2.257,4.677.321,6.886a11.477,11.477,0,0,1,5.491-8.1,25.662,25.662,0,0,0,3.741-2.707c1.9-1.834,1.754-3.936.67-4.909a32.032,32.032,0,0,1,5.455-3.1.427.427,0,0,0,.172-.143q1.442.138,2.878.315c2.566.315,5.1.752,7.628,1.246a33.739,33.739,0,0,0-4.591,2.759c-2.459-1.07-5.206.971-6.706,2.617a13.824,13.824,0,0,0-2.84,6.631c-.377,2.2.257,4.677.321,6.886a11.477,11.477,0,0,1,5.491-8.1,25.658,25.658,0,0,0,3.741-2.707c1.9-1.832,1.755-3.931.674-4.905a32.222,32.222,0,0,1,5.123-2.946q4.975,1.034,9.8,2.529a33.756,33.756,0,0,0-5.076,3c-2.46-1.075-5.21.967-6.711,2.615a13.822,13.822,0,0,0-2.84,6.63c-.377,2.2.257,4.677.321,6.886a11.476,11.476,0,0,1,5.491-8.1A25.685,25.685,0,0,0,73.5,439.9c1.9-1.834,1.754-3.937.67-4.909a32.045,32.045,0,0,1,5.455-3.1h0c2.911.933,5.766,2.005,8.57,3.184a33.279,33.279,0,0,0-5.155,3.027c-2.426-1.055-5.135.958-6.614,2.582a13.641,13.641,0,0,0-2.8,6.541c-.372,2.174.254,4.614.317,6.793a11.32,11.32,0,0,1,5.417-7.987,25.327,25.327,0,0,0,3.69-2.671c1.872-1.807,1.731-3.879.665-4.839a31.649,31.649,0,0,1,5.378-3.056c.009,0,.013-.01.021-.014,2.746,1.186,5.425,2.5,8.045,3.923a33.741,33.741,0,0,0-4.979,2.949c-2.46-1.075-5.21.967-6.711,2.615a13.824,13.824,0,0,0-2.84,6.63c-.377,2.2.257,4.677.321,6.886a11.478,11.478,0,0,1,5.491-8.1,25.66,25.66,0,0,0,3.741-2.707c1.9-1.832,1.755-3.931.674-4.9a32.261,32.261,0,0,1,5.112-2.941c.3.165.605.313.9.481a100.111,100.111,0,0,1,13.52,9.209Q112.687,449.066,112.98,448.626Z" transform="translate(0 -208.97)" fill="#5e9fff"/>
    <path id="Path_30195" data-name="Path 30195" d="M1009.63,358.082c2.518.129,6.4-.019,12.5-2.368a42.329,42.329,0,0,0,14.169-8.165c.226-.2.627-.561,1.12-1.059a.717.717,0,0,0,.078-.074c.049-.04.1-.087.148-.131.17-.164.346-.344.547-.519,3.676-3.747,10.812-12.22,9.388-21.478-.073-.534-1.161-7.259-4.686-7.984-4.416-.862-9.515,8.2-11.306,7.219-.9-.5.122-2.871.32-5.977.511-6.976-3.128-15.942-9.182-17.24a9.214,9.214,0,0,0-8.534,2.868c-3.56,3.9-.607,11.039-1.224,11.218-.9.221-2.425-14.707-10.517-17.461-2.844-.953-6.736-.483-8.34,1.591-2.346,3.044,1.29,8.3-.219,9.346-1.6,1.113-5.353-4.88-13.044-6.415-1.954-.376-6.544-1.283-9.643,1.419A8.51,8.51,0,0,0,973.5,317.2c4.821,2.282,8.082-.781,16.767.22,3.03.339,6.326,1.134,6.379,2.165-.012.763-1.858.958-3.853,2.844a1.224,1.224,0,0,0-.188.177c-.6.582-2.732,2.669-2.777,5.451-.019.116,0,3.135,1.971,4.255a4.033,4.033,0,0,0,2.62.363c4.892-.659,11.155.007,11.284.8.174.907-7.725,1.9-8.217,4.943-.406,2.532,4.517,5.048,5.153,5.372,5.315,2.669,11.071,1.68,11.082,2.124-.006.377-4.706,0-8.557,2.886-1.8,1.331-4.378,4.059-3.727,6.191C1002.2,357.626,1007.43,357.952,1009.63,358.082Z" transform="translate(-574.934 -148.491)" fill="#feac2e"/>
    <path id="Path_30196" data-name="Path 30196" d="M1041.13,355.115c.192-1.076,1.317-1.557,2.287-1.715a10.179,10.179,0,0,1,3.684.175c2.537.525,4.991,1.671,7.624,1.625a6.3,6.3,0,0,0,3.725-1.167,92.926,92.926,0,0,1-8.5-8.8c-1.005-1.146-2.009-2.3-3.027-3.441-3.937-1.153-7.813,1.392-11.788.9a6.027,6.027,0,0,1-2.918-1.135c-.144-.108.038-.32.182-.212a7.565,7.565,0,0,0,5.726.988c1.929-.28,3.792-.909,5.74-1.077a8.729,8.729,0,0,1,2.731.171,63.382,63.382,0,0,0-8.934-8.545,27.935,27.935,0,0,0-13.723-5.862c-.632-.062-1.265-.1-1.9-.1-.179-.006-.2-.282-.022-.284a25.759,25.759,0,0,1,13.654,4.514c.694.449,1.364.929,2.024,1.421a.128.128,0,0,1,0-.1c.99-2.276-.493-4.568-1.876-6.293a21.963,21.963,0,0,1-2.153-2.922,4.126,4.126,0,0,1-.658-2.918c.042-.174.317-.125.275.05a4.5,4.5,0,0,0,1.014,3.361c.7,1.047,1.553,1.973,2.3,2.979,1.233,1.654,2.239,3.815,1.349,5.862a.117.117,0,0,1-.14.068,69.1,69.1,0,0,1,9.969,9.677c1.7,1.925,3.382,3.875,5.115,5.773a12.245,12.245,0,0,0,3.03-8.468,11.518,11.518,0,0,0-1.267-4.673,23.06,23.06,0,0,1-2.121-4.962,5.291,5.291,0,0,1,1.207-5.029c.129-.123.343.058.213.182a5.116,5.116,0,0,0-1.086,5.046,29.743,29.743,0,0,0,2.215,5.016,11.239,11.239,0,0,1,1.121,4.5,12.728,12.728,0,0,1-.67,4.345,12.02,12.02,0,0,1-2.45,4.253,65.532,65.532,0,0,0,6.744,6.517,36.743,36.743,0,0,0,5.4,3.7c-.75-4.463,2.667-8.2,3.592-12.359a7.756,7.756,0,0,0,0-3.686c-.046-.173.218-.266.264-.091,1.184,4.455-2.206,8.352-3.322,12.428a8.526,8.526,0,0,0-.247,3.769.109.109,0,0,1-.022.087,26.538,26.538,0,0,0,4.53,1.966c-.052.044-.1.091-.148.131a.69.69,0,0,1-.078.074,29.477,29.477,0,0,1-7.545-3.832,42.339,42.339,0,0,1-3.585-2.8c-1.79,1.39-4.186,1.44-6.32,1.013-2.477-.5-4.847-1.581-7.4-1.653-1.178-.033-3.275.1-3.538,1.58A.141.141,0,0,1,1041.13,355.115Z" transform="translate(-607.308 -162.855)" fill="#fff"/>
    <path id="Path_30197" data-name="Path 30197" d="M183.679,325.126c6.277,1.2,18.357-4.7,23.608-.935-2.8,6.957-12.08,1.253-17.891,2.662-5.3,1.911,6.789,12.773,15.116,12.722,6.8.236,9.3-8.111,21.372-15.145,10.231-6.16,13.675-4.325,17.55-9.477,7.088-9.43,2.712-25.056,1.205-25.123-.609-.027-.464,2.476-2.817,7.259.153.617-11.263,18.048-12.046,9.37,1.566-9.309,13.314-9.308,13.152-21.131-.125-8.864-10.92-15.6-11.647-14.988,4.594,4.776-.995,20.9-6.963,24.966-3.78,2.145-3.352-1.448-1.7-5.024,3.867-12.482,6.77-18.792,1.751-28.056-6.153-11.355-19.509-7.142-32.873-12.877,0,0-12.337,12.881-11.676,24.836.636,11.505,13.364,9.255,18.455,15.177,2.455,2.348.844,6.4-2.023,7.018-4.729,1.977-10.615-1.356-14.832-3.807-6.985-4.063-8.471-7.064-10.051-6.3-4.247,1.887.531,17.707,7.6,19.333,6.9,5.225,22.851-1.848,28.135,6-3.518,5.888-22.078,3.054-28.546-.5-3.19-2.261-4.472-5.169-5.11-4.86C172.946,310.438,178.114,323.67,183.679,325.126Z" transform="translate(-92.365 -120.021)" fill="#feac2e"/>
    <path id="Path_30198" data-name="Path 30198" d="M211.8,359.942a12.374,12.374,0,0,0,5.784,1.2,13.036,13.036,0,0,0,5.5-1.5,44.75,44.75,0,0,0,5.286-3.451,57.773,57.773,0,0,1,5.8-3.62,28.12,28.12,0,0,1,2.778-1.381,3.011,3.011,0,0,1,2.509-.121c.009,0,.016,0,.025,0,.072.142.152.279.221.423.235.48.459.967.663,1.465a1.893,1.893,0,0,1,.191-.12,25.848,25.848,0,0,0-1.281-2.622c0-.006,0-.013,0-.016a4.3,4.3,0,0,1-.1-1.261,2.34,2.34,0,0,1,.289-1.18,5.156,5.156,0,0,1,1.359-1.218c.492-.339,1-.67,1.5-.988,3.572-2.237,7.463-4,10.737-6.69a15.65,15.65,0,0,0,5.736-8.548c.03-.14-.193-.175-.224-.029a13.213,13.213,0,0,1-2.716,5.474c-2.532,3.141-6.036,5.215-9.5,7.183-1.921,1.088-3.855,2.158-5.67,3.418a3.5,3.5,0,0,0-1.642,1.843,4.469,4.469,0,0,0-.085,1.476,52.975,52.975,0,0,0-4.9-6.554c-.079-.1-.164-.2-.243-.295v-.006a11.248,11.248,0,0,1,.641-5.851c1.4-3.8,4.328-6.623,7.289-9.266.81-.723,1.626-1.445,2.426-2.182a21.75,21.75,0,0,0,2.157-2.189,5.927,5.927,0,0,0,1.514-4.879c-.031-.139-.256-.117-.222.026.486,2.231-.907,4.23-2.4,5.738-2.972,2.994-6.525,5.453-8.987,8.934a13.414,13.414,0,0,0-2.69,9.348,42.93,42.93,0,0,1-4.493-6.216,23.729,23.729,0,0,1-1.691-3.823c0-.01,0-.019,0-.032s-.012-.024-.023-.039c-.411-1.194-.75-2.414-1.047-3.643-.493-2.046-.889-4.114-1.358-6.167a20.884,20.884,0,0,1,2.276-6.2c1.822-3.507,4.3-6.759,5.3-10.638.888-3.453.308-7.715-2.793-9.9-.119-.085-.257.091-.138.176a7.675,7.675,0,0,1,2.992,5.249c.588,3.981-1.342,7.7-3.292,11.031-1.8,3.062-3.77,6.223-4.473,9.751-.062-.262-.119-.527-.184-.793a36.742,36.742,0,0,0-2.78-7.552c-2.478-4.944-5.9-9.325-9.3-13.652a.112.112,0,0,0-.18.134q.626.793,1.248,1.588a67.658,67.658,0,0,1,8.662,13.347,10.516,10.516,0,0,0-3.78-2.038c-1.654-.624-3.549-1.421-4.217-3.207a.112.112,0,0,0-.207.082c.623,1.674,2.324,2.555,3.893,3.164,1.633.634,3.508,1.194,4.594,2.662.005.007.012,0,.018.009l0,0a42.489,42.489,0,0,1,2.324,7.624c.549,2.5,1.016,5.011,1.728,7.47.068.234.144.47.216.7a8.459,8.459,0,0,0-5.275-2.944,21.975,21.975,0,0,0-6.984.227,34.479,34.479,0,0,1-6.862.36,29.36,29.36,0,0,1-12.649-3.786c-.124-.076-.212.136-.087.205a29.447,29.447,0,0,0,13.105,3.826,36.45,36.45,0,0,0,6.663-.4,20.814,20.814,0,0,1,7.007-.166,7.584,7.584,0,0,1,5.382,3.575,25.31,25.31,0,0,0,2.676,5.478,79,79,0,0,0,5.2,6.655l.451.559a10.07,10.07,0,0,0-4.548-.786,22.4,22.4,0,0,0-4.873.93,49.661,49.661,0,0,1-5,1.156,37.865,37.865,0,0,1-9.931.317c-.146-.015-.178.211-.035.222a38.361,38.361,0,0,0,5.46.155,37.947,37.947,0,0,0,4.867-.527c1.648-.291,3.255-.719,4.867-1.155a20.585,20.585,0,0,1,4.94-.885,9.451,9.451,0,0,1,4.554.967c.006,0,.007-.006.01,0a35.426,35.426,0,0,1,3.547,5.2,3.269,3.269,0,0,0-2.3.154,25.269,25.269,0,0,0-3.122,1.542,57.982,57.982,0,0,0-5.665,3.544,41.8,41.8,0,0,1-5.414,3.513,12.74,12.74,0,0,1-5.6,1.4,12.17,12.17,0,0,1-5.33-1.188C211.76,359.676,211.673,359.882,211.8,359.942Z" transform="translate(-107.569 -148.103)" fill="#fff"/>
    <path id="Path_30199" data-name="Path 30199" d="M223.715,502.714H145.462v-35.33l78.253-93.018h37.439v95.021h19.4v33.326h-19.4v28.9H223.715Zm0-33.326V420.732l-41.348,48.656Z" transform="translate(-77.679 -195.569)" fill="#6ea5f7"/>
    <rect id="Rectangle_17654" data-name="Rectangle 17654" width="8.053" height="33.326" transform="translate(194.827 273.819)" fill="#5193f4"/>
    <rect id="Rectangle_17655" data-name="Rectangle 17655" width="8.053" height="95.021" transform="translate(175.422 178.797)" fill="#5193f4"/>
    <path id="Path_30200" data-name="Path 30200" d="M226.43,527.473l41.348-47.511v-9.477l-49.4,56.987Z" transform="translate(-121.742 -253.655)" fill="#5193f4"/>
    <rect id="Rectangle_17656" data-name="Rectangle 17656" width="8.053" height="28.897" transform="translate(175.422 307.145)" fill="#5193f4"/>
    <path id="Path_30201" data-name="Path 30201" d="M1025.053,502.714H946.8v-35.33l78.253-93.018h37.439v95.021h19.4v33.326h-19.4v28.9h-37.439v-28.9Zm0-33.326V420.732l-41.348,48.656Z" transform="translate(-561.93 -195.569)" fill="#6ea5f7"/>
    <rect id="Rectangle_17657" data-name="Rectangle 17657" width="8.053" height="33.326" transform="translate(511.912 273.819)" fill="#5193f4"/>
    <rect id="Rectangle_17658" data-name="Rectangle 17658" width="8.053" height="95.021" transform="translate(492.507 178.797)" fill="#5193f4"/>
    <path id="Path_30202" data-name="Path 30202" d="M1027.772,527.473l41.346-47.511v-9.477l-49.4,56.987Z" transform="translate(-605.996 -253.655)" fill="#5193f4"/>
    <rect id="Rectangle_17659" data-name="Rectangle 17659" width="8.053" height="28.897" transform="translate(492.507 307.145)" fill="#5193f4"/>
    <path id="Path_30203" data-name="Path 30203" d="M609.819,91.279a9.018,9.018,0,0,0-3.582.737c.014-.244.022-.49.022-.737a12.684,12.684,0,0,0-19.593-10.636,17.355,17.355,0,0,0-34.7.624c0,.191,0,.38.01.569a12.683,12.683,0,0,0-21.149,9.444,12.767,12.767,0,0,0,.088,1.5,9.049,9.049,0,1,0,1.223,14.138,12.685,12.685,0,0,0,19.68,3.963,12.684,12.684,0,0,0,15.945-1.513,12.681,12.681,0,0,0,16.818.873,12.684,12.684,0,0,0,19.954-2.56,9.049,9.049,0,1,0,5.282-16.4ZM320.366,79.919a9.611,9.611,0,0,0-3.819.786c.015-.26.023-.522.023-.786a13.524,13.524,0,0,0-20.89-11.34,18.5,18.5,0,0,0-37,.664c0,.2,0,.406.011.607a13.523,13.523,0,0,0-22.454,11.663,9.648,9.648,0,1,0,1.3,15.073,13.525,13.525,0,0,0,20.983,4.225,13.524,13.524,0,0,0,17-1.613,13.521,13.521,0,0,0,17.932.93,13.523,13.523,0,0,0,21.275-2.73,9.647,9.647,0,1,0,5.631-17.481Z" transform="translate(-123.497)" fill="#e6f0ff"/>
    <path id="Path_30204" data-name="Path 30204" d="M999.466,740.8a13.194,13.194,0,0,1-4.5,4.15H936.318c-2.406-.436-4.467-2.518-6.591-3.744a7.216,7.216,0,0,1-3.877-5.826,5.549,5.549,0,0,1,6.2-5.287c1.1.193,2.193.718,3.27.453,1.795-.453,2.364-2.808,1.906-4.608s-1.56-3.389-1.825-5.214A6.107,6.107,0,0,1,941.8,714.1c3.094.333,5.368,2.992,7.117,5.574.932,1.389,2.133,2.983,3.8,2.9a3.341,3.341,0,0,0,2.74-2.479,13.074,13.074,0,0,0,.325-3.907,24.483,24.483,0,0,1,2.663-10.75c1.33-2.59,3.4-5.116,6.27-5.6,3.128-.517,6.244,1.706,7.531,4.6s1.086,6.24.316,9.309c-.569,2.261-1.342,4.9.124,6.706a3.94,3.94,0,0,0,1.226,1,5.254,5.254,0,0,0,5.8-.649c.722-.628,1.257-1.449,1.988-2.06a5.312,5.312,0,0,1,6.57.133,6.441,6.441,0,0,1,1.949,6.454c-.333,1.313-1.047,2.5-1.462,3.787a4.342,4.342,0,0,0,.282,3.9c2.052,2.783,7.027.051,9.767,2.162C1000.419,736.423,1000.471,739.005,999.466,740.8Z" transform="translate(-549.27 -392.203)" fill="#feac2e"/>
    <path id="Path_30205" data-name="Path 30205" d="M979.54,732.083a5.526,5.526,0,0,1-2.381,3.8c-1.376.924-3.3,1.269-4.159,2.821a.2.2,0,0,1-.094.085c-.406,1.659-.812,3.317-1.162,4.979a35.961,35.961,0,0,0-.855,11.31h-.419a26.243,26.243,0,0,1-.158-3.176,36.269,36.269,0,0,1,.484-5.334.174.174,0,0,1-.18-.154,4.619,4.619,0,0,0-1.453-2.3c-.748-.773-1.5-1.539-2.252-2.308-1.325-1.367-2.676-2.958-2.68-4.971a.212.212,0,0,1,.423,0c0,2.077,1.552,3.637,2.906,5.026.722.744,1.466,1.474,2.176,2.235a5.152,5.152,0,0,1,1.175,1.783c.692-3.988,1.842-7.912,2.68-11.869a43.17,43.17,0,0,0,1.009-7.762.292.292,0,0,1-.051-.03c-1.209-1.171-2.56-2.569-2.423-4.393.021-.27.444-.273.423,0-.12,1.59.992,2.812,2.056,3.856a20.915,20.915,0,0,0-1.7-8.839c-.111-.244.252-.462.368-.214a19.149,19.149,0,0,1,1.325,4.249,6.622,6.622,0,0,0,1.44-3.155c.047-.269.453-.153.41.111A7.005,7.005,0,0,1,974.7,721.4a25.175,25.175,0,0,1,.334,4.471,53.332,53.332,0,0,1-1.885,11.934,13.423,13.423,0,0,1,3.394-2.043,5.178,5.178,0,0,0,2.59-3.791C979.164,731.7,979.576,731.818,979.54,732.083Zm-18.364,22.991h-.427a27.022,27.022,0,0,0-.03-2.825c-.013-.235-.034-.471-.055-.706a.162.162,0,0,1-.171.085,11.3,11.3,0,0,1-7.463-3.949c-.175-.205.124-.508.3-.3a10.88,10.88,0,0,0,7.164,3.821.206.206,0,0,1,.145.081,19.455,19.455,0,0,0-1.441-5.77,24.134,24.134,0,0,0-2.722-4.629.19.19,0,0,1-.112,0c-2.312-.671-5.33.338-7.151-1.68-.179-.2.12-.5.3-.3a4.409,4.409,0,0,0,3.018,1.223,25.612,25.612,0,0,1,3.578.256c-.064-.081-.124-.167-.188-.248-1.3-1.7-2.71-3.312-4.052-4.98-.658-.825-1.3-1.663-1.906-2.53a10.931,10.931,0,0,1-1.53-2.936c-.082-.261.329-.372.41-.111a11.881,11.881,0,0,0,1.855,3.351c.483.671.991,1.316,1.5,1.958a5.067,5.067,0,0,0,.414-4.693c-.107-.248.261-.466.368-.214a5.525,5.525,0,0,1-.5,5.262c.154.192.308.385.466.577a49.262,49.262,0,0,1,6.031,8.262c.338-.906,1.047-1.633,1.445-2.517.615-1.376.094-2.9-.368-4.231-.09-.261.32-.372.41-.116.47,1.355.962,2.872.436,4.287-.414,1.116-1.406,1.958-1.645,3.141a17.41,17.41,0,0,1,.735,1.74A23.107,23.107,0,0,1,961.176,755.075Zm-10.113,0h-.437a8.481,8.481,0,0,0-1.432-3.313c-.141-.192-.3-.368-.458-.547a.206.206,0,0,1-.115.008c-.786-.184-1.483.432-2.184.68a2.824,2.824,0,0,1-2.15-.141c-.247-.115-.03-.483.214-.363a2.472,2.472,0,0,0,2.18-.06,4.088,4.088,0,0,1,1.645-.564,12.544,12.544,0,0,0-2-1.624c-1.176-.791-2.441-1.44-3.676-2.128a20.476,20.476,0,0,1-1.834-1.1,2.1,2.1,0,0,1-.97-1.261c-.056-.265.354-.38.406-.111.15.718.9,1.1,1.47,1.449.722.436,1.466.838,2.206,1.244.055.034.111.064.171.094a5.128,5.128,0,0,0-.278-2.573c-.094-.256.317-.368.41-.115a5.59,5.59,0,0,1,.273,2.829.147.147,0,0,1-.034.068c2.137,1.193,4.3,2.556,5.552,4.714A9,9,0,0,1,951.063,755.075Zm44.811-18.995c-.158.594-.787.868-1.308,1.073a6.084,6.084,0,0,1-1.988.393c-.008,0-.017,0-.026,0-.227.286-.462.559-.7.833a42.13,42.13,0,0,0-3.573,4.368,28.662,28.662,0,0,0-3.864,8.39c1.389-.709,2.932-1.056,4.343-1.731a4.55,4.55,0,0,0,2.894-3.415c.026-.274.449-.274.427,0a4.78,4.78,0,0,1-2.774,3.616c-1.616.855-3.453,1.18-5.039,2.09a28.414,28.414,0,0,0-.654,3.381h-.432a28.8,28.8,0,0,1,2.586-8.762c0-.013-.013-.021-.017-.034-.564-2.03-2.056-4.171-1-6.3.12-.244.488-.03.368.214-.906,1.834.321,3.8.919,5.57a28.892,28.892,0,0,1,2.081-3.523c.479-.688.992-1.359,1.53-2h0a8.848,8.848,0,0,1-.616-5.057c.047-.269.458-.154.41.112a8.261,8.261,0,0,0,.517,4.586c.564-.658,1.158-1.291,1.731-1.945a8.472,8.472,0,0,0,2.5-5.035c.008-.273.436-.273.423,0a7.627,7.627,0,0,1-1.705,4.21,5.837,5.837,0,0,0,1.4-.3c.41-.15,1.043-.359,1.171-.834A.211.211,0,0,1,995.875,736.08Zm8.448,13.331a10.91,10.91,0,0,0-2.979.705.207.207,0,0,1-.179.077c-.184.077-.376.15-.56.235a11.52,11.52,0,0,0-2.308,1.466,10.408,10.408,0,0,1,3.766,1.039c.244.124.03.488-.213.368a9.862,9.862,0,0,0-3.886-1.009.182.182,0,0,1-.1-.03,10.869,10.869,0,0,0-2.231,2.778c0,.013-.013.021-.017.034h-.474a10.579,10.579,0,0,1,.65-1.1,11.513,11.513,0,0,1,2.338-2.5,11.835,11.835,0,0,1,2.847-1.667,8.6,8.6,0,0,1,.517-2.723c.094-.253.5-.141.41.115a8.274,8.274,0,0,0-.5,2.445,11.49,11.49,0,0,1,2.915-.658C1004.6,748.967,1004.6,749.39,1004.323,749.411Z" transform="translate(-557.728 -402.328)" fill="#fff"/>
  </g>
</svg>
