<svg id="Component_20_1" data-name="Component 20 – 1" xmlns="http://www.w3.org/2000/svg" width="10.393" height="10.91" viewBox="0 0 10.393 10.91">
  <path id="Icon_ionic-ios-arrow-back" data-name="Icon ionic-ios-arrow-back" d="M13.131,11.647l4.128-4.125a.78.78,0,0,0-1.1-1.1l-4.677,4.673a.778.778,0,0,0-.023,1.075l4.7,4.706a.78.78,0,1,0,1.1-1.1Z" transform="translate(-11.251 -6.194)" fill="#1e1e1e"/>
  <path id="Icon_ionic-ios-arrow-back-2" data-name="Icon ionic-ios-arrow-back" d="M13.131,11.647l4.128-4.125a.78.78,0,0,0-1.1-1.1l-4.677,4.673a.778.778,0,0,0-.023,1.075l4.7,4.706a.78.78,0,1,0,1.1-1.1Z" transform="translate(-7.094 -6.194)" fill="#1e1e1e"/>
</svg>
