<svg xmlns="http://www.w3.org/2000/svg" xmlns:xlink="http://www.w3.org/1999/xlink" width="106.836" height="109.2" viewBox="0 0 106.836 109.2">
  <defs>
    <linearGradient id="linear-gradient" x1="0.708" y1="0.314" x2="0.39" y2="0.598" gradientUnits="objectBoundingBox">
      <stop offset="0" stop-color="#fdbd27"/>
      <stop offset="1" stop-color="#ff9c34"/>
    </linearGradient>
    <linearGradient id="linear-gradient-2" x1="0" y1="0.5" x2="1" y2="0.5" xlink:href="#linear-gradient"/>
    <linearGradient id="linear-gradient-3" x1="0" y1="0.5" x2="1" y2="0.5" xlink:href="#linear-gradient"/>
    <linearGradient id="linear-gradient-4" x1="0.81" y1="0.651" x2="0.178" y2="0.491" gradientUnits="objectBoundingBox">
      <stop offset="0" stop-color="#5abef2"/>
      <stop offset="1" stop-color="#459ddd"/>
    </linearGradient>
    <linearGradient id="linear-gradient-5" x1="0.258" y1="0.255" x2="0.743" y2="0.665" xlink:href="#linear-gradient-4"/>
    <linearGradient id="linear-gradient-6" x1="1.082" y1="0.157" x2="0.166" y2="0.872" xlink:href="#linear-gradient-4"/>
    <linearGradient id="linear-gradient-7" x1="0.971" y1="-0.025" x2="-0.117" y2="0.787" xlink:href="#linear-gradient-4"/>
  </defs>
  <g id="svg" transform="translate(0 -0.007)">
    <g id="Group_28026" data-name="Group 28026" transform="translate(3.316 10.769)">
      <circle id="Ellipse_7050" data-name="Ellipse 7050" cx="28.487" cy="28.487" r="28.487" transform="translate(23.651 7.072)" fill="url(#linear-gradient)"/>
      <g id="Group_28022" data-name="Group 28022" transform="translate(3.582 16.083)">
        <path id="Path_29674" data-name="Path 29674" d="M146.492,240.784c2.161,5.207,5.847,1.558,9.8,3.068l-3.416-6.728a6.525,6.525,0,0,1-4.843-1.886,5.808,5.808,0,0,0-5.8-1.382L141,235.748c1.069.091,3.719.766,5.492,5.037Z" transform="translate(-127.172 -226.104)" fill="#eab87d"/>
        <path id="Path_29675" data-name="Path 29675" d="M155.182,191.764a6.521,6.521,0,0,0,4.843,1.886l-5.6-11.02-5.049,7.752A5.809,5.809,0,0,1,155.182,191.764Z" transform="translate(-134.321 -182.63)" fill="#eec99d"/>
        <path id="Path_29676" data-name="Path 29676" d="M118.695,257.451c5.451,5.731,9.4-.967,14.086,1.264l-1.208-2.38c-3.956-1.51-7.641,2.14-9.8-3.068-1.773-4.272-4.423-4.946-5.492-5.037l-4.26,6.538a8.215,8.215,0,0,1,6.675,2.681Z" transform="translate(-102.452 -238.587)" fill="#e1953c"/>
        <path id="Path_29677" data-name="Path 29677" d="M104.673,327.165a6.142,6.142,0,0,0-7.3,1.42c-4.6,4.508-10.736,2.521-12.772-2.55a5.784,5.784,0,0,0-6.219-3.706L75.93,326.1a7.082,7.082,0,0,1,6.844,3.485,9.807,9.807,0,0,0,4.007,3.872l21.677,1.166Z" transform="translate(-71.667 -301.767)" fill="#e1953c"/>
        <path id="Path_29678" data-name="Path 29678" d="M58.037,351.378a7.085,7.085,0,0,0-6.844-3.485l-4.263,6.544,15.114.813A9.807,9.807,0,0,1,58.037,351.378Z" transform="translate(-46.93 -323.563)" fill="#e1953c"/>
        <path id="Path_29679" data-name="Path 29679" d="M98.849,300.655c2.036,5.071,8.168,7.059,12.772,2.55a6.141,6.141,0,0,1,7.3-1.42l-2.675-5.27c-4.683-2.231-8.636,4.467-14.086-1.264a8.215,8.215,0,0,0-6.675-2.681l-2.852,4.379A5.784,5.784,0,0,1,98.849,300.655Z" transform="translate(-85.912 -276.388)" fill="#e1953c"/>
      </g>
      <g id="Group_28023" data-name="Group 28023" transform="translate(23.018 20.113)">
        <path id="Path_29680" data-name="Path 29680" d="M278.712,268.214c2.161,5.207,5.846,1.558,9.8,3.068l-3.416-6.728a6.525,6.525,0,0,1-4.843-1.886,5.809,5.809,0,0,0-5.8-1.382l-1.232,1.892c1.069.091,3.719.766,5.492,5.038Z" transform="translate(-259.392 -253.532)" fill="#eab87d"/>
        <path id="Path_29681" data-name="Path 29681" d="M287.392,219.184a6.521,6.521,0,0,0,4.843,1.886l-5.6-11.02L281.59,217.8A5.809,5.809,0,0,1,287.392,219.184Z" transform="translate(-266.532 -210.05)" fill="#eec99d"/>
        <path id="Path_29682" data-name="Path 29682" d="M250.915,284.871c5.45,5.731,9.4-.967,14.086,1.264l-1.208-2.38c-3.956-1.51-7.641,2.14-9.8-3.068-1.773-4.272-4.423-4.946-5.492-5.037l-4.26,6.538a8.215,8.215,0,0,1,6.675,2.681Z" transform="translate(-234.672 -266.007)" fill="#e1953c"/>
        <path id="Path_29683" data-name="Path 29683" d="M236.883,354.585a6.141,6.141,0,0,0-7.3,1.42c-4.6,4.508-10.736,2.521-12.772-2.55a5.784,5.784,0,0,0-6.219-3.706l-2.455,3.769A7.082,7.082,0,0,1,214.984,357a9.807,9.807,0,0,0,4.007,3.872l21.677,1.166Z" transform="translate(-203.879 -329.187)" fill="#e1953c"/>
        <path id="Path_29684" data-name="Path 29684" d="M190.257,378.807a7.085,7.085,0,0,0-6.844-3.485l-4.263,6.544,15.114.813A9.807,9.807,0,0,1,190.257,378.807Z" transform="translate(-179.15 -350.992)" fill="#e1953c"/>
        <path id="Path_29685" data-name="Path 29685" d="M231.059,328.075c2.036,5.071,8.168,7.059,12.772,2.55a6.141,6.141,0,0,1,7.3-1.42l-2.675-5.27c-4.683-2.231-8.636,4.467-14.086-1.264a8.215,8.215,0,0,0-6.675-2.681l-2.852,4.379A5.784,5.784,0,0,1,231.059,328.075Z" transform="translate(-218.124 -303.808)" fill="#e1953c"/>
      </g>
      <g id="Group_28024" data-name="Group 28024" transform="translate(59.973)">
        <path id="Path_29686" data-name="Path 29686" d="M502.894,117.8s-.409-36.892-4.758-44.582l-.806.3s4.694,15.333,3.113,44.269Z" transform="translate(-487.515 -73.22)" fill="#d6e7f0"/>
        <path id="Path_29687" data-name="Path 29687" d="M514.03,130.22s19.835,4.968,22.966,30.094c0,0-13.6-2.327-20.431,4.123C516.566,164.437,520.295,142.4,514.03,130.22Z" transform="translate(-501.76 -121.841)" fill="#d6e7f0"/>
        <path id="Path_29688" data-name="Path 29688" d="M440.939,81.505s-3.268-.125-4.61,2.639S430.56,86,430.56,86s2.58,5.495,12.015,1.382C442.575,87.383,439.374,84.877,440.939,81.505Z" transform="translate(-430.56 -80.286)" fill="url(#linear-gradient-2)"/>
        <path id="Path_29689" data-name="Path 29689" d="M442.575,108.63a6.33,6.33,0,0,1-1.679-2.22,4.849,4.849,0,0,1-2.8.723c-1.327-.375-1.332.659-3.184,1.685s-4.351-1.57-4.351-1.57S433.14,112.742,442.575,108.63Z" transform="translate(-430.56 -101.531)" fill="url(#linear-gradient-3)"/>
      </g>
      <path id="Path_29690" data-name="Path 29690" d="M343.519,341.485c-1.333-.075,1.571,12.872,5.649,16.119,1.122.892,32.8,3.873,38.821,2.089,2.377-.7,9.577-19.6,10.172-21.373,0,0-7.166,5.858-54.643,3.165Z" transform="translate(-296.06 -299.352)" fill="#d6e7f0"/>
      <path id="Path_29691" data-name="Path 29691" d="M126.08,280.67c-14.93,65.158-78.346-13.347-103.52,20.2C46.016,292.535,121.732,362.694,126.08,280.67Z" transform="translate(-22.56 -250.176)" fill="url(#linear-gradient-4)"/>
      <path id="Path_29692" data-name="Path 29692" d="M28.27,451.937c15.376-12.784,48.4,22.777,74.223,15.181C70.316,486.229,49.543,452.242,28.27,451.937Z" transform="translate(-27.431 -393.878)" fill="url(#linear-gradient-5)"/>
      <g id="Group_28025" data-name="Group 28025" transform="translate(0.434 84.596)">
        <path id="Path_29693" data-name="Path 29693" d="M29.632,662.641h6.775v.894H27.095V652.666c0-1.182-.2-1.961-1.383-1.961h-.2V650.1h2.364a1.617,1.617,0,0,1,1.413.548,3.873,3.873,0,0,1,.345,2.018Z" transform="translate(-25.51 -649.899)" fill="#fff"/>
        <path id="Path_29694" data-name="Path 29694" d="M109.268,650.11l4.382,10.9c.462,1.154,1.152,1.874,2.046,1.961v.491a4.8,4.8,0,0,1-.951.115,4.476,4.476,0,0,1-2.046-.461,3.3,3.3,0,0,1-1.817-2.105l-.462-1.527h-5.189l-1.614,4.064H102.58l5.794-13.434Zm-1.355,3.373-2.277,5.132h4.439Z" transform="translate(-91.251 -649.907)" fill="#fff"/>
        <path id="Path_29695" data-name="Path 29695" d="M192.027,662.309l-4.555-11.07c-.606-1.47-1.152-1.961-1.931-2.076v-.375a2.383,2.383,0,0,0,.375-.03,2.8,2.8,0,0,1,.432-.029,4.609,4.609,0,0,1,2.1.432,3.644,3.644,0,0,1,1.787,2.076l3.084,7.552,4.151-9.859h.98l-5.621,13.376h-.807Z" transform="translate(-162.017 -648.73)" fill="#fff"/>
        <path id="Path_29696" data-name="Path 29696" d="M287.13,661.007v-10.9h2.537v10.9c0,1.154.2,1.961,1.383,1.961h.2v.576h-2.364a1.515,1.515,0,0,1-1.383-.519A3.564,3.564,0,0,1,287.13,661.007Z" transform="translate(-248.674 -649.907)" fill="#fff"/>
        <path id="Path_29697" data-name="Path 29697" d="M321.06,650.1h8.648a1.7,1.7,0,0,1,1.355.49,1.755,1.755,0,0,1,.318,1.1v1.643h-.606c0-1.643-.864-2.334-2.45-2.334h-3.141v4.9h5.1v.864h-5.1v5.881h3.344a3.009,3.009,0,0,0,3.113-2.22l.519.2-.576,1.529c-.288.864-.606,1.383-1.7,1.383h-7.235V652.667c0-1.182-.2-1.961-1.383-1.961h-.2V650.1Z" transform="translate(-277.616 -649.899)" fill="#fff"/>
        <path id="Path_29698" data-name="Path 29698" d="M449.221,681.55v.526h-2.993v8.23h-1.194v-8.23h-1.194c-1.072,0-1.658.464-1.658,1.536h-.263v-.991a1.068,1.068,0,0,1,.222-.748,1.158,1.158,0,0,1,.91-.323h6.166Z" transform="translate(-380.71 -676.726)" fill="#fff"/>
        <path id="Path_29699" data-name="Path 29699" d="M498.06,684.411a5.161,5.161,0,0,1,1.113-3.316,3.875,3.875,0,0,1,3.013-1.335,3.8,3.8,0,0,1,2.993,1.335,5.056,5.056,0,0,1,1.113,3.316,4.9,4.9,0,0,1-1.113,3.275,3.785,3.785,0,0,1-2.993,1.355,3.856,3.856,0,0,1-3.013-1.355A5.006,5.006,0,0,1,498.06,684.411Zm6.9,0a5.532,5.532,0,0,0-.728-3.013,2.37,2.37,0,0,0-2.042-1.113,2.342,2.342,0,0,0-2.042,1.113,6.4,6.4,0,0,0,0,6.006,2.363,2.363,0,0,0,2.042,1.113,2.388,2.388,0,0,0,2.042-1.113A5.551,5.551,0,0,0,504.955,684.411Z" transform="translate(-428.598 -675.199)" fill="#fff"/>
        <path id="Path_29700" data-name="Path 29700" d="M561.554,683.148c0-.808-.141-1.335-.93-1.335h-.263v-.263h1.192c.464,0,.769.06.951.284a2.31,2.31,0,0,1,.242,1.314v3.781a3.633,3.633,0,0,0,.526,2.183,2.009,2.009,0,0,0,1.82.789,2.459,2.459,0,0,0,2.1-.808,4.233,4.233,0,0,0,.586-2.568V681.55h.547v4.974a4.78,4.78,0,0,1-.667,2.932,4.144,4.144,0,0,1-5.378,0,4.621,4.621,0,0,1-.728-2.932v-3.376Z" transform="translate(-481.741 -676.726)" fill="#fff"/>
        <path id="Path_29701" data-name="Path 29701" d="M627.646,686.253h-.91V690.3h-1.192v-7.159c0-.808-.141-1.335-.93-1.335h-.284v-.263h3.457a4.811,4.811,0,0,1,2.083.4,2.046,2.046,0,0,1,1.233,1.982,1.95,1.95,0,0,1-.708,1.618,3.716,3.716,0,0,1-1.416.647l1.4,2.3a4.033,4.033,0,0,0,.91,1.173,1.6,1.6,0,0,0,.889.365v.263a2.434,2.434,0,0,1-.808.141,1.783,1.783,0,0,1-1.213-.425,5.044,5.044,0,0,1-1.173-1.517l-1.335-2.245Zm.081-.465a2.362,2.362,0,0,0,1.294-.445,1.612,1.612,0,0,0,.748-1.416,1.747,1.747,0,0,0-.748-1.476,2.377,2.377,0,0,0-1.294-.445,3.657,3.657,0,0,0-.991.141v3.5a3.657,3.657,0,0,0,.991.141Z" transform="translate(-536.307 -676.717)" fill="#fff"/>
        <path id="Path_29702" data-name="Path 29702" d="M688.573,686.656a2.325,2.325,0,0,1-.728,1.779,3,3,0,0,1-2.023.667,5.038,5.038,0,0,1-2.042-.425,1.478,1.478,0,0,1-.991-1.194v-1.416h.243c.3,1.779,1.173,2.508,2.669,2.508a2.144,2.144,0,0,0,1.213-.344,1.183,1.183,0,0,0,.526-1.011c0-.788-.485-1.254-1.457-1.84l-1.637-.951c-1.132-.688-1.557-1.294-1.557-2.284a2.195,2.195,0,0,1,.728-1.658,2.781,2.781,0,0,1,1.861-.607,4.377,4.377,0,0,1,1.921.425,1.421,1.421,0,0,1,.931,1.173v1.416h-.222c-.323-1.779-1.132-2.487-2.628-2.487a1.794,1.794,0,0,0-1.071.365,1.23,1.23,0,0,0-.464.991,1.21,1.21,0,0,0,.363.93,5.2,5.2,0,0,0,1.092.808l1.637.97a4.131,4.131,0,0,1,1.254.951,1.95,1.95,0,0,1,.384,1.233Z" transform="translate(-586.174 -675.301)" fill="#fff"/>
      </g>
      <path id="Path_29703" data-name="Path 29703" d="M398.611,386.64a1.99,1.99,0,1,1-1.99-1.99A1.99,1.99,0,0,1,398.611,386.64Z" transform="translate(-339.938 -338.872)" fill="#3a78c9"/>
      <path id="Path_29704" data-name="Path 29704" d="M451.371,388.9a1.99,1.99,0,1,1-1.99-1.99A1.99,1.99,0,0,1,451.371,388.9Z" transform="translate(-384.943 -340.8)" fill="#3a78c9"/>
      <circle id="Ellipse_7051" data-name="Ellipse 7051" cx="1.99" cy="1.99" r="1.99" transform="translate(70.58 46.11)" fill="#3a78c9"/>
      <circle id="Ellipse_7052" data-name="Ellipse 7052" cx="1.99" cy="1.99" r="1.99" transform="translate(78.714 46.11)" fill="#3a78c9"/>
      <circle id="Ellipse_7053" data-name="Ellipse 7053" cx="1.99" cy="1.99" r="1.99" transform="translate(88.011 44.815)" fill="#3a78c9"/>
    </g>
    <g id="Group_28027" data-name="Group 28027" transform="translate(0 0.007)">
      <path id="Path_29705" data-name="Path 29705" d="M348.15,60.9l2.327,1.521,1.689,1.1a4.662,4.662,0,0,0,2.8-4.117,8.864,8.864,0,0,1,.381-1.774.238.238,0,0,0-.06.019L348.151,60.9Z" transform="translate(-296.974 -49.16)" fill="url(#linear-gradient-6)"/>
      <path id="Path_29706" data-name="Path 29706" d="M66.435.807a36.226,36.226,0,0,0-4.811,1.116,3.44,3.44,0,0,0-.382.129c-.431.129-.894.27-1.352.415-.257.081-.5.173-.75.254a21.206,21.206,0,0,1-4.429.592,16.653,16.653,0,0,1-5.448-.625c-4.748-1.417-7.63-4.57-13.731-1.132L46.159,8.474,48.2,7.729s-1.635,1.011-1.63,1.014c-.076.044-.173.1-.262.153,0,0-.053.032-.056.032-1.429.838-3.762,2.062-3.773,2.074a9.322,9.322,0,0,1-7.059.322c-3.841-1.405-5.13.173-5.13.173l4.477,2.963h-.032l.922.6-1.5-.572a7.2,7.2,0,0,0-1.943.382c-.118.073-.259.413-.381.534a25.5,25.5,0,0,1-3.657,2.318A61.808,61.808,0,0,0,16.647,28.313,75.5,75.5,0,0,0,4.3,47.462,69.914,69.914,0,0,0,0,60.86,79.6,79.6,0,0,1,8.484,42.728a81.917,81.917,0,0,1,28.5-27.039c1.518-.532,2.9-1.083,4.1-1.611H41.1c3.394-1.227,8.223-2.963,12.858-4.619C56.607,8.5,59.188,7.579,61.4,6.8l.141-.049c1.676-.6,3.125-1.116,4.241-1.514,1.241-.447,2.037-.717,2.151-.75,3.5-.97,5.146-4.635-1.5-3.681Z" transform="translate(0 -0.007)" fill="url(#linear-gradient-7)"/>
    </g>
  </g>
</svg>
