<svg xmlns="http://www.w3.org/2000/svg" xmlns:xlink="http://www.w3.org/1999/xlink" width="88.069" height="90.018" viewBox="0 0 88.069 90.018">
  <defs>
    <linearGradient id="linear-gradient" x1="0.708" y1="0.314" x2="0.39" y2="0.598" gradientUnits="objectBoundingBox">
      <stop offset="0" stop-color="#fdbd27"/>
      <stop offset="1" stop-color="#ff9c34"/>
    </linearGradient>
    <linearGradient id="linear-gradient-2" x1="0" y1="0.5" x2="1" y2="0.5" xlink:href="#linear-gradient"/>
    <linearGradient id="linear-gradient-3" x1="0" y1="0.5" x2="1" y2="0.5" xlink:href="#linear-gradient"/>
    <linearGradient id="linear-gradient-4" x1="0.81" y1="0.651" x2="0.178" y2="0.491" gradientUnits="objectBoundingBox">
      <stop offset="0" stop-color="#5abef2"/>
      <stop offset="1" stop-color="#459ddd"/>
    </linearGradient>
    <linearGradient id="linear-gradient-5" x1="0.258" y1="0.255" x2="0.743" y2="0.665" xlink:href="#linear-gradient-4"/>
    <linearGradient id="linear-gradient-6" x1="1.082" y1="0.157" x2="0.166" y2="0.872" xlink:href="#linear-gradient-4"/>
    <linearGradient id="linear-gradient-7" x1="0.971" y1="-0.025" x2="-0.117" y2="0.787" xlink:href="#linear-gradient-4"/>
  </defs>
  <g id="svg" transform="translate(0 -0.007)">
    <g id="Group_28026" data-name="Group 28026" transform="translate(2.734 8.879)">
      <circle id="Ellipse_7050" data-name="Ellipse 7050" cx="23.483" cy="23.483" r="23.483" transform="translate(19.497 5.83)" fill="url(#linear-gradient)"/>
      <g id="Group_28022" data-name="Group 28022" transform="translate(2.953 13.257)">
        <path id="Path_29674" data-name="Path 29674" d="M145.527,239.521c1.781,4.292,4.82,1.284,8.08,2.529l-2.816-5.546a5.379,5.379,0,0,1-3.993-1.555,4.788,4.788,0,0,0-4.783-1.139L141,235.37c.881.075,3.066.631,4.527,4.153Z" transform="translate(-129.601 -227.42)" fill="#eab87d"/>
        <path id="Path_29675" data-name="Path 29675" d="M154.163,190.16a5.375,5.375,0,0,0,3.993,1.555l-4.613-9.084-4.162,6.391A4.789,4.789,0,0,1,154.163,190.16Z" transform="translate(-136.966 -182.63)" fill="#eec99d"/>
        <path id="Path_29676" data-name="Path 29676" d="M117.522,255.831c4.493,4.725,7.751-.8,11.612,1.042l-1-1.962c-3.261-1.244-6.3,1.764-8.08-2.529-1.461-3.521-3.646-4.077-4.527-4.153l-3.512,5.39a6.772,6.772,0,0,1,5.5,2.21Z" transform="translate(-104.133 -240.281)" fill="#e1953c"/>
        <path id="Path_29677" data-name="Path 29677" d="M99.624,326.31a5.063,5.063,0,0,0-6.015,1.171c-3.8,3.716-8.85,2.078-10.529-2.1a4.768,4.768,0,0,0-5.127-3.055L75.93,325.43a5.838,5.838,0,0,1,5.642,2.873,8.085,8.085,0,0,0,3.3,3.192l17.869.961Z" transform="translate(-72.416 -305.374)" fill="#e1953c"/>
        <path id="Path_29678" data-name="Path 29678" d="M56.086,350.758a5.84,5.84,0,0,0-5.642-2.873l-3.514,5.395,12.459.67A8.084,8.084,0,0,1,56.086,350.758Z" transform="translate(-46.93 -327.83)" fill="#e1953c"/>
        <path id="Path_29679" data-name="Path 29679" d="M97.757,299.23c1.678,4.18,6.734,5.819,10.529,2.1a5.063,5.063,0,0,1,6.015-1.171l-2.205-4.344c-3.861-1.839-7.119,3.682-11.612-1.042a6.772,6.772,0,0,0-5.5-2.21l-2.351,3.61A4.768,4.768,0,0,1,97.757,299.23Z" transform="translate(-87.092 -279.226)" fill="#e1953c"/>
      </g>
      <g id="Group_28023" data-name="Group 28023" transform="translate(18.974 16.58)">
        <path id="Path_29680" data-name="Path 29680" d="M277.747,266.951c1.781,4.292,4.819,1.284,8.08,2.529l-2.816-5.546a5.378,5.378,0,0,1-3.993-1.555,4.788,4.788,0,0,0-4.783-1.139L273.22,262.8c.881.075,3.066.631,4.527,4.153Z" transform="translate(-261.821 -254.849)" fill="#eab87d"/>
        <path id="Path_29681" data-name="Path 29681" d="M286.373,217.58a5.375,5.375,0,0,0,3.993,1.555l-4.613-9.084-4.162,6.391A4.789,4.789,0,0,1,286.373,217.58Z" transform="translate(-269.177 -210.05)" fill="#eec99d"/>
        <path id="Path_29682" data-name="Path 29682" d="M249.742,283.251c4.493,4.724,7.751-.8,11.612,1.042l-1-1.962c-3.261-1.244-6.3,1.764-8.08-2.529-1.461-3.521-3.646-4.077-4.527-4.153l-3.512,5.39a6.772,6.772,0,0,1,5.5,2.21Z" transform="translate(-236.353 -267.701)" fill="#e1953c"/>
        <path id="Path_29683" data-name="Path 29683" d="M231.834,353.729a5.063,5.063,0,0,0-6.015,1.171c-3.8,3.716-8.85,2.078-10.529-2.1a4.768,4.768,0,0,0-5.127-3.055l-2.024,3.107a5.838,5.838,0,0,1,5.642,2.873,8.085,8.085,0,0,0,3.3,3.192l17.869.961Z" transform="translate(-204.627 -332.793)" fill="#e1953c"/>
        <path id="Path_29684" data-name="Path 29684" d="M188.306,378.188a5.84,5.84,0,0,0-5.642-2.873l-3.514,5.395,12.459.67A8.085,8.085,0,0,1,188.306,378.188Z" transform="translate(-179.15 -355.258)" fill="#e1953c"/>
        <path id="Path_29685" data-name="Path 29685" d="M229.967,326.65c1.678,4.18,6.734,5.819,10.529,2.1a5.063,5.063,0,0,1,6.015-1.171l-2.205-4.344c-3.861-1.839-7.119,3.682-11.612-1.042a6.772,6.772,0,0,0-5.5-2.21l-2.351,3.61A4.768,4.768,0,0,1,229.967,326.65Z" transform="translate(-219.304 -306.646)" fill="#e1953c"/>
      </g>
      <g id="Group_28024" data-name="Group 28024" transform="translate(49.438)">
        <path id="Path_29686" data-name="Path 29686" d="M501.916,109.97s-.337-30.412-3.922-36.75l-.664.25s3.869,12.639,2.566,36.492Z" transform="translate(-489.239 -73.22)" fill="#5b8aa2"/>
        <path id="Path_29687" data-name="Path 29687" d="M514.03,130.22s16.351,4.1,18.932,24.807c0,0-11.21-1.918-16.842,3.4C516.12,158.426,519.194,140.259,514.03,130.22Z" transform="translate(-503.916 -123.313)" fill="#5b8aa2"/>
        <path id="Path_29688" data-name="Path 29688" d="M439.116,81.5a4.243,4.243,0,0,0-3.8,2.175c-1.106,2.278-4.756,1.532-4.756,1.532s2.127,4.529,9.9,1.139C440.465,86.351,437.825,84.285,439.116,81.5Z" transform="translate(-430.56 -80.5)" fill="url(#linear-gradient-2)"/>
        <path id="Path_29689" data-name="Path 29689" d="M440.465,108.24a5.218,5.218,0,0,1-1.384-1.83,4,4,0,0,1-2.31.6c-1.094-.309-1.1.543-2.625,1.389s-3.587-1.294-3.587-1.294S432.687,111.63,440.465,108.24Z" transform="translate(-430.56 -102.388)" fill="url(#linear-gradient-3)"/>
      </g>
      <path id="Path_29690" data-name="Path 29690" d="M343.461,340.929c-1.1-.062,1.3,10.611,4.657,13.288.924.736,27.035,3.193,32,1.722,1.959-.58,7.894-16.158,8.385-17.618,0,0-5.907,4.829-45.044,2.609Z" transform="translate(-304.34 -306.197)" fill="#5b8aa2"/>
      <path id="Path_29691" data-name="Path 29691" d="M107.9,280.67c-12.307,53.712-64.583-11-85.335,16.653C41.9,290.451,104.311,348.285,107.9,280.67Z" transform="translate(-22.56 -255.533)" fill="url(#linear-gradient-4)"/>
      <path id="Path_29692" data-name="Path 29692" d="M28.27,451.444c12.675-10.538,39.9,18.776,61.184,12.515C62.93,479.713,45.806,451.7,28.27,451.444Z" transform="translate(-27.578 -403.585)" fill="url(#linear-gradient-5)"/>
      <g id="Group_28025" data-name="Group 28025" transform="translate(0.357 69.735)">
        <path id="Path_29693" data-name="Path 29693" d="M28.908,660.438h5.585v.737H26.816v-8.959c0-.974-.166-1.616-1.14-1.616H25.51v-.5h1.948a1.333,1.333,0,0,1,1.164.452,3.193,3.193,0,0,1,.285,1.664Z" transform="translate(-25.51 -649.934)" fill="#5b8aa2"/>
        <path id="Path_29694" data-name="Path 29694" d="M108.093,650.11l3.612,8.982c.38.951.95,1.545,1.687,1.616v.4a3.958,3.958,0,0,1-.784.095,3.689,3.689,0,0,1-1.687-.38,2.722,2.722,0,0,1-1.5-1.735l-.38-1.259h-4.277l-1.33,3.35h-.855l4.777-11.074Zm-1.117,2.781-1.877,4.23h3.659Z" transform="translate(-93.241 -649.943)" fill="#5b8aa2"/>
        <path id="Path_29695" data-name="Path 29695" d="M190.887,659.924l-3.755-9.125c-.5-1.212-.95-1.616-1.592-1.711v-.309a1.969,1.969,0,0,0,.309-.024,2.305,2.305,0,0,1,.356-.024,3.8,3.8,0,0,1,1.735.356,3,3,0,0,1,1.473,1.711l2.542,6.226,3.422-8.127h.808l-4.634,11.027h-.665Z" transform="translate(-166.149 -648.73)" fill="#5b8aa2"/>
        <path id="Path_29696" data-name="Path 29696" d="M287.13,659.092V650.11h2.091v8.982c0,.951.166,1.616,1.14,1.616h.166v.475h-1.948a1.249,1.249,0,0,1-1.14-.428A2.938,2.938,0,0,1,287.13,659.092Z" transform="translate(-255.429 -649.943)" fill="#5b8aa2"/>
        <path id="Path_29697" data-name="Path 29697" d="M321.06,650.1h7.129a1.4,1.4,0,0,1,1.117.4,1.447,1.447,0,0,1,.262.9v1.355h-.5c0-1.355-.712-1.924-2.02-1.924h-2.589v4.04h4.206v.712h-4.206v4.848h2.757a2.48,2.48,0,0,0,2.566-1.83l.428.166-.475,1.26c-.238.712-.5,1.14-1.4,1.14h-5.964v-8.959c0-.974-.166-1.616-1.14-1.616h-.166v-.5Z" transform="translate(-285.248 -649.934)" fill="#5b8aa2"/>
        <path id="Path_29698" data-name="Path 29698" d="M447.939,681.55v.434h-2.467v6.784h-.984v-6.784H443.5c-.883,0-1.367.383-1.367,1.266h-.217v-.817a.88.88,0,0,1,.183-.617.954.954,0,0,1,.75-.267h5.083Z" transform="translate(-391.463 -677.573)" fill="#5b8aa2"/>
        <path id="Path_29699" data-name="Path 29699" d="M498.06,683.594a4.255,4.255,0,0,1,.917-2.734,3.2,3.2,0,0,1,2.484-1.1,3.135,3.135,0,0,1,2.467,1.1,4.168,4.168,0,0,1,.917,2.734,4.037,4.037,0,0,1-.917,2.7,3.12,3.12,0,0,1-2.467,1.117,3.179,3.179,0,0,1-2.484-1.117A4.126,4.126,0,0,1,498.06,683.594Zm5.684,0a4.56,4.56,0,0,0-.6-2.484,1.954,1.954,0,0,0-1.683-.917,1.931,1.931,0,0,0-1.683.917,5.276,5.276,0,0,0,0,4.951,1.948,1.948,0,0,0,1.683.917,1.968,1.968,0,0,0,1.683-.917A4.575,4.575,0,0,0,503.744,683.594Z" transform="translate(-440.8 -676)" fill="#5b8aa2"/>
        <path id="Path_29700" data-name="Path 29700" d="M561.344,682.867c0-.666-.116-1.1-.767-1.1h-.217v-.217h.983c.383,0,.634.05.784.234a1.9,1.9,0,0,1,.2,1.083v3.117a3,3,0,0,0,.434,1.8,1.656,1.656,0,0,0,1.5.651,2.027,2.027,0,0,0,1.734-.666,3.489,3.489,0,0,0,.483-2.117v-4.1h.451v4.1a3.941,3.941,0,0,1-.55,2.417,3.416,3.416,0,0,1-4.434,0,3.809,3.809,0,0,1-.6-2.417v-2.783Z" transform="translate(-495.551 -677.573)" fill="#5b8aa2"/>
        <path id="Path_29701" data-name="Path 29701" d="M627.064,685.425h-.75v3.333h-.983v-5.9c0-.666-.116-1.1-.767-1.1h-.234v-.217h2.85a3.966,3.966,0,0,1,1.717.333,1.687,1.687,0,0,1,1.017,1.633,1.607,1.607,0,0,1-.584,1.334,3.063,3.063,0,0,1-1.167.533l1.15,1.9a3.324,3.324,0,0,0,.75.967,1.316,1.316,0,0,0,.733.3v.217a2.006,2.006,0,0,1-.666.116,1.47,1.47,0,0,1-1-.35,4.158,4.158,0,0,1-.967-1.25l-1.1-1.85Zm.067-.383a1.947,1.947,0,0,0,1.066-.367,1.329,1.329,0,0,0,.617-1.167,1.44,1.44,0,0,0-.617-1.217,1.96,1.96,0,0,0-1.066-.367,3.016,3.016,0,0,0-.817.116v2.884a3.016,3.016,0,0,0,.817.116Z" transform="translate(-551.77 -677.564)" fill="#5b8aa2"/>
        <path id="Path_29702" data-name="Path 29702" d="M687.557,685.466a1.916,1.916,0,0,1-.6,1.466,2.475,2.475,0,0,1-1.667.55,4.153,4.153,0,0,1-1.683-.35,1.219,1.219,0,0,1-.817-.984v-1.167h.2c.25,1.466.967,2.067,2.2,2.067a1.768,1.768,0,0,0,1-.284.975.975,0,0,0,.434-.834c0-.649-.4-1.034-1.2-1.517l-1.35-.784c-.933-.567-1.283-1.066-1.283-1.883a1.809,1.809,0,0,1,.6-1.367,2.293,2.293,0,0,1,1.534-.5,3.607,3.607,0,0,1,1.584.35,1.171,1.171,0,0,1,.767.967v1.167h-.183c-.267-1.466-.933-2.05-2.167-2.05a1.479,1.479,0,0,0-.883.3,1.014,1.014,0,0,0-.383.817,1,1,0,0,0,.3.767,4.285,4.285,0,0,0,.9.666l1.35.8a3.4,3.4,0,0,1,1.034.784,1.607,1.607,0,0,1,.316,1.017Z" transform="translate(-603.146 -676.105)" fill="#5b8aa2"/>
      </g>
      <path id="Path_29703" data-name="Path 29703" d="M397.911,386.291a1.641,1.641,0,1,1-1.641-1.641A1.64,1.64,0,0,1,397.911,386.291Z" transform="translate(-349.546 -346.914)" fill="#fff"/>
      <path id="Path_29704" data-name="Path 29704" d="M450.671,388.551a1.641,1.641,0,1,1-1.641-1.641A1.64,1.64,0,0,1,450.671,388.551Z" transform="translate(-395.913 -348.9)" fill="#fff"/>
      <circle id="Ellipse_7051" data-name="Ellipse 7051" cx="1.641" cy="1.641" r="1.641" transform="translate(58.182 38.01)" fill="#fff"/>
      <circle id="Ellipse_7052" data-name="Ellipse 7052" cx="1.641" cy="1.641" r="1.641" transform="translate(64.886 38.01)" fill="#fff"/>
      <circle id="Ellipse_7053" data-name="Ellipse 7053" cx="1.641" cy="1.641" r="1.641" transform="translate(72.55 36.943)" fill="#fff"/>
    </g>
    <g id="Group_28027" data-name="Group 28027" transform="translate(0 0.007)">
      <path id="Path_29705" data-name="Path 29705" d="M348.15,60.322l1.918,1.254,1.392.91a3.843,3.843,0,0,0,2.307-3.394,7.307,7.307,0,0,1,.314-1.463.2.2,0,0,0-.05.016l-5.88,2.678Z" transform="translate(-305.964 -50.648)" fill="url(#linear-gradient-6)"/>
      <path id="Path_29706" data-name="Path 29706" d="M54.765.667a29.863,29.863,0,0,0-3.966.92,2.836,2.836,0,0,0-.315.107c-.355.107-.737.223-1.115.342-.212.067-.408.143-.618.21a17.481,17.481,0,0,1-3.651.488,13.727,13.727,0,0,1-4.491-.515C36.7,1.05,34.319-1.549,29.291,1.285l8.76,5.7,1.683-.614s-1.347.834-1.344.836c-.063.036-.143.082-.216.126,0,0-.044.027-.046.027-1.178.691-3.1,1.7-3.11,1.71a7.684,7.684,0,0,1-5.819.265c-3.166-1.158-4.229.143-4.229.143l3.691,2.443h-.027l.76.5-1.235-.471a5.937,5.937,0,0,0-1.6.315c-.1.061-.213.34-.314.44a21.024,21.024,0,0,1-3.015,1.911,50.951,50.951,0,0,0-9.506,8.726A62.238,62.238,0,0,0,3.543,39.125,57.632,57.632,0,0,0,0,50.17,65.621,65.621,0,0,1,6.994,35.224a67.527,67.527,0,0,1,23.494-22.29c1.252-.439,2.387-.893,3.382-1.328h.013c2.8-1.012,6.778-2.443,10.6-3.807,2.181-.79,4.309-1.55,6.134-2.194l.116-.04c1.381-.5,2.576-.92,3.5-1.248C55.251,3.948,55.907,3.725,56,3.7c2.888-.8,4.242-3.821-1.235-3.034Z" transform="translate(0 -0.007)" fill="url(#linear-gradient-7)"/>
    </g>
  </g>
</svg>
