<svg xmlns="http://www.w3.org/2000/svg" width="19" height="19" viewBox="0 0 19 19">
  <g id="_02" data-name="02" transform="translate(-1 -1)">
    <g id="Group_28149" data-name="Group 28149" transform="translate(3.615 3.28)">
      <path id="Path_29730" data-name="Path 29730" d="M104.59,89.495a6.095,6.095,0,0,0-12.19,0Z" transform="translate(-91.61 -82.61)" fill="#fff"/>
      <path id="Path_29731" data-name="Path 29731" d="M84.18,69.875H71.99a.789.789,0,0,1-.79-.794,6.885,6.885,0,0,1,13.769,0,.8.8,0,0,1-.231.563A.786.786,0,0,1,84.18,69.875ZM72.843,68.291H83.326a5.3,5.3,0,0,0-10.484,0Z" transform="translate(-71.2 -62.2)" fill="#e1953c"/>
    </g>
    <g id="Group_28150" data-name="Group 28150" transform="translate(9.706 1)">
      <line id="Line_711" data-name="Line 711" y2="2.172" transform="translate(0.794 0.79)" fill="#fff"/>
      <path id="Path_29732" data-name="Path 29732" d="M235.494,4.752a.794.794,0,0,1-.794-.794V1.794a.794.794,0,0,1,1.587,0V3.962A.793.793,0,0,1,235.494,4.752Z" transform="translate(-234.7 -1)" fill="#e1953c"/>
    </g>
    <g id="Group_28151" data-name="Group 28151" transform="translate(15.913 9.367)">
      <line id="Line_712" data-name="Line 712" x1="2.157" transform="translate(0.794 0.797)" fill="#fff"/>
      <path id="Path_29733" data-name="Path 29733" d="M404.251,227.187h-2.157a.794.794,0,1,1,0-1.587h2.157a.794.794,0,1,1,0,1.587Z" transform="translate(-401.3 -225.6)" fill="#e1953c"/>
    </g>
    <g id="Group_28152" data-name="Group 28152" transform="translate(1.343 9.367)">
      <line id="Line_713" data-name="Line 713" x1="2.157" transform="translate(0.794 0.797)" fill="#fff"/>
      <path id="Path_29734" data-name="Path 29734" d="M13.151,227.187H10.994a.794.794,0,1,1,0-1.587h2.157a.794.794,0,1,1,0,1.587Z" transform="translate(-10.2 -225.6)" fill="#e1953c"/>
    </g>
    <g id="Group_28153" data-name="Group 28153" transform="translate(14.206 3.45)">
      <line id="Line_714" data-name="Line 714" x1="1.427" y2="1.427" transform="translate(0.791 0.791)" fill="#fff"/>
      <path id="Path_29735" data-name="Path 29735" d="M356.266,69.786a.79.79,0,0,1-.559-1.349l1.427-1.431a.79.79,0,0,1,1.118,1.118l-1.427,1.427A.781.781,0,0,1,356.266,69.786Z" transform="translate(-355.475 -66.775)" fill="#e1953c"/>
    </g>
    <g id="Group_28154" data-name="Group 28154" transform="translate(3.793 3.458)">
      <line id="Line_715" data-name="Line 715" x1="1.535" y1="1.535" transform="translate(0.791 0.791)" fill="#fff"/>
      <path id="Path_29736" data-name="Path 29736" d="M78.3,70.09a.793.793,0,0,1-.559-.231l-1.535-1.531a.793.793,0,0,1,1.121-1.121l1.535,1.531A.792.792,0,0,1,78.3,70.09Z" transform="translate(-75.975 -66.975)" fill="#e1953c"/>
    </g>
    <g id="Group_28161" data-name="Group 28161" transform="translate(1 12.471)">
      <g id="Group_28157" data-name="Group 28157" transform="translate(0 0.004)">
        <g id="Group_28155" data-name="Group 28155">
          <path id="Path_29737" data-name="Path 29737" d="M6.257,312.241A3.637,3.637,0,0,1,3.7,311.28a2.537,2.537,0,0,0-1.907-.7.792.792,0,1,1,0-1.583,4.046,4.046,0,0,1,2.9,1.043,2.084,2.084,0,0,0,1.565.611.794.794,0,1,1,0,1.587Z" transform="translate(-1 -309)" fill="#5abef2"/>
        </g>
        <g id="Group_28156" data-name="Group 28156" transform="translate(4.463 0)">
          <path id="Path_29738" data-name="Path 29738" d="M121.594,312.241a.794.794,0,0,1,0-1.587,2.09,2.09,0,0,0,1.565-.611,4.047,4.047,0,0,1,2.9-1.043.794.794,0,0,1,0,1.587,2.522,2.522,0,0,0-1.907.7A3.654,3.654,0,0,1,121.594,312.241Z" transform="translate(-120.8 -309)" fill="#5abef2"/>
        </g>
      </g>
      <g id="Group_28160" data-name="Group 28160" transform="translate(8.487)">
        <g id="Group_28158" data-name="Group 28158">
          <path id="Path_29739" data-name="Path 29739" d="M234.057,312.145a3.638,3.638,0,0,1-2.556-.961,2.537,2.537,0,0,0-1.907-.7.794.794,0,1,1,0-1.587,4.047,4.047,0,0,1,2.9,1.043,2.084,2.084,0,0,0,1.565.611.8.8,0,0,1,0,1.591Z" transform="translate(-228.8 -308.9)" fill="#5abef2"/>
        </g>
        <g id="Group_28159" data-name="Group 28159" transform="translate(4.463 0.004)">
          <path id="Path_29740" data-name="Path 29740" d="M349.394,312.241a.794.794,0,1,1,0-1.587,2.09,2.09,0,0,0,1.565-.611,4.047,4.047,0,0,1,2.9-1.043.794.794,0,0,1,0,1.587,2.522,2.522,0,0,0-1.907.7A3.639,3.639,0,0,1,349.394,312.241Z" transform="translate(-348.6 -309)" fill="#5abef2"/>
        </g>
      </g>
    </g>
    <g id="Group_28168" data-name="Group 28168" transform="translate(1 16.755)">
      <g id="Group_28164" data-name="Group 28164" transform="translate(0 0.004)">
        <g id="Group_28162" data-name="Group 28162">
          <path id="Path_29741" data-name="Path 29741" d="M6.257,427.241A3.638,3.638,0,0,1,3.7,426.28a2.537,2.537,0,0,0-1.907-.7.792.792,0,1,1,0-1.583,4.047,4.047,0,0,1,2.9,1.043,2.09,2.09,0,0,0,1.565.611.794.794,0,0,1,0,1.587Z" transform="translate(-1 -424)" fill="#5abef2"/>
        </g>
        <g id="Group_28163" data-name="Group 28163" transform="translate(4.463 0)">
          <path id="Path_29742" data-name="Path 29742" d="M121.594,427.241a.794.794,0,1,1,0-1.587,2.09,2.09,0,0,0,1.565-.611,4.047,4.047,0,0,1,2.9-1.043.794.794,0,1,1,0,1.587,2.522,2.522,0,0,0-1.907.7A3.654,3.654,0,0,1,121.594,427.241Z" transform="translate(-120.8 -424)" fill="#5abef2"/>
        </g>
      </g>
      <g id="Group_28167" data-name="Group 28167" transform="translate(8.487)">
        <g id="Group_28165" data-name="Group 28165">
          <path id="Path_29743" data-name="Path 29743" d="M234.057,427.145a3.637,3.637,0,0,1-2.556-.961,2.537,2.537,0,0,0-1.907-.7.794.794,0,1,1,0-1.587,4.047,4.047,0,0,1,2.9,1.043,2.09,2.09,0,0,0,1.565.611.8.8,0,0,1,0,1.591Z" transform="translate(-228.8 -423.9)" fill="#5abef2"/>
        </g>
        <g id="Group_28166" data-name="Group 28166" transform="translate(4.463 0.004)">
          <path id="Path_29744" data-name="Path 29744" d="M349.394,427.241a.794.794,0,1,1,0-1.587,2.09,2.09,0,0,0,1.565-.611,4.047,4.047,0,0,1,2.9-1.043.794.794,0,0,1,0,1.587,2.522,2.522,0,0,0-1.907.7A3.639,3.639,0,0,1,349.394,427.241Z" transform="translate(-348.6 -424)" fill="#5abef2"/>
        </g>
      </g>
    </g>
  </g>
</svg>
