<svg xmlns="http://www.w3.org/2000/svg" width="12.851" height="24" viewBox="0 0 12.851 24">
  <g id="_03" data-name="03" transform="translate(-13.148 -2)">
    <path id="Path_29745" data-name="Path 29745" d="M18.683,42.515A1.347,1.347,0,0,0,20,43.575h4.77a1.356,1.356,0,0,0,1.33-1.08l.973-5.345H17.7Z" transform="translate(-2.278 -17.575)" fill="#e1953c"/>
    <path id="Path_29746" data-name="Path 29746" d="M26,15.465v2.61a.5.5,0,0,1-.5.5H14.725a.5.5,0,0,1-.5-.5v-2.61a.5.5,0,0,1,.5-.5H19.61V8.7a2.456,2.456,0,0,1-1.565.55,2.482,2.482,0,0,1-.54-.06c-2.46-.5-4.07-2.765-4.31-6.045l-.045-.615a.489.489,0,0,1,.14-.38A.494.494,0,0,1,13.665,2l.615.015c4.01.115,5.875,2.265,6.285,4.24q.029.164.045.33v3.7a4.629,4.629,0,0,1,3.875-.795l.39.07a.51.51,0,0,1,.34.23.532.532,0,0,1,.055.4l-.11.385c-.615,2.11-1.99,3.37-3.69,3.37h-.015a1.775,1.775,0,0,1-.845-.2v1.22H25.5a.5.5,0,0,1,.5.5Z" fill="#5abef2"/>
  </g>
</svg>
