<svg xmlns="http://www.w3.org/2000/svg" width="17.391" height="20" viewBox="0 0 17.391 20">
  <g id="_04" data-name="04" transform="translate(-1236.861 -1396.922)">
    <path id="Path_29747" data-name="Path 29747" d="M20.806,18.375a.641.641,0,0,1-.656.656H14.806a3.494,3.494,0,0,1-3.5-3.5v-.187a3.494,3.494,0,0,1,3.5-3.5h2.938a1.531,1.531,0,1,0,.031-3.062H10.556V6.813h7.125A3.8,3.8,0,0,1,20.826,8.58a2.975,2.975,0,0,1,.449,1.388,3.423,3.423,0,0,1-.906,2.688,3.524,3.524,0,0,1-2.594,1.156H14.806a1.534,1.534,0,0,0-1.531,1.531v.187a1.534,1.534,0,0,0,1.531,1.531H20.15a.641.641,0,0,1,.656.656Z" transform="translate(1232.961 1396.969)" fill="#5abef2"/>
    <path id="Path_29748" data-name="Path 29748" d="M3.4,3.188a.115.115,0,0,1,.031-.094L6.681,0h.031a.1.1,0,0,1,.063.031l3.25,3.094a.115.115,0,0,1,.031.094.1.1,0,0,1-.062.031H3.462A.061.061,0,0,1,3.4,3.188Zm5.594.688V5.594H4.462V3.875Zm.281,5.5H4.181a.641.641,0,0,1-.656-.656V6.875a.641.641,0,0,1,.656-.656H9.275a.641.641,0,0,1,.656.656V8.719A.641.641,0,0,1,9.275,9.375Zm-.812.594V11h-3.5V9.969H4.337v9.688a.313.313,0,0,0,.313.313.336.336,0,0,0,.313-.312V18.344h3.5v1.344A.313.313,0,0,0,8.775,20a.336.336,0,0,0,.313-.312V10H8.462Zm-3.5,3.938h3.5V15.5h-3.5Zm3.5-2.25V13.25h-3.5V11.656Zm-3.5,6.063V16.125h3.5v1.594Z" transform="translate(1233.461 1396.922)" fill="#e1953c"/>
  </g>
</svg>
