<svg xmlns="http://www.w3.org/2000/svg" width="20" height="20" viewBox="0 0 20 20">
  <g id="_05" data-name="05" transform="translate(-0.443 -0.443)">
    <rect id="Rectangle_17646" data-name="Rectangle 17646" width="20" height="20" transform="translate(0.443 0.443)" fill="none"/>
    <rect id="Rectangle_17647" data-name="Rectangle 17647" width="18" height="5" transform="translate(1.443 12.443)" fill="#5abef2"/>
    <path id="Path_29749" data-name="Path 29749" d="M164.437,295.245c.3.1.6.255.9.382a3.138,3.138,0,0,0,1.22.29,3.969,3.969,0,0,0,1.379-.366,2.635,2.635,0,0,1,.857-.272.563.563,0,0,1,.267.105c.12.068.239.147.358.219a1.913,1.913,0,0,0,.972.315,3.879,3.879,0,0,0,1.177-.26,4.808,4.808,0,0,1,1.378-.379,3.163,3.163,0,0,1,1.129.365,2.988,2.988,0,0,0,1.107.273,2.4,2.4,0,0,0,1.053-.29,2.1,2.1,0,0,1,.863-.349,2.534,2.534,0,0,1,.874.271,3.826,3.826,0,0,0,1.362.368,3.137,3.137,0,0,0,1.22-.29c.3-.126.595-.28.9-.382a.639.639,0,0,0-.4-1.212c-.335.112-.662.277-.992.417a1.874,1.874,0,0,1-.723.189,2.534,2.534,0,0,1-.874-.271A3.827,3.827,0,0,0,177.1,294a2.4,2.4,0,0,0-1.053.29,2.1,2.1,0,0,1-.863.348,2.335,2.335,0,0,1-.837-.269,3.694,3.694,0,0,0-1.4-.37,4.973,4.973,0,0,0-1.53.356,3.6,3.6,0,0,1-1.025.283.563.563,0,0,1-.267-.105c-.12-.068-.239-.147-.358-.219a1.913,1.913,0,0,0-.972-.315,3.182,3.182,0,0,0-1.1.27,3.588,3.588,0,0,1-1.137.369,1.874,1.874,0,0,1-.723-.189c-.331-.14-.657-.305-.992-.417a.639.639,0,0,0-.4,1.212Z" transform="translate(-162.722 -282.501)" fill="#35a5e0" fill-rule="evenodd"/>
    <path id="Path_29750" data-name="Path 29750" d="M177.639,295.278a.563.563,0,0,1,.267.105c.12.068.239.147.358.219a1.913,1.913,0,0,0,.972.315,3.879,3.879,0,0,0,1.177-.26,4.807,4.807,0,0,1,1.378-.379,3.164,3.164,0,0,1,1.129.365,2.987,2.987,0,0,0,1.107.273,2.4,2.4,0,0,0,1.053-.29,2.1,2.1,0,0,1,.863-.349.639.639,0,0,0,0-1.278,2.4,2.4,0,0,0-1.053.29,2.1,2.1,0,0,1-.863.349,2.336,2.336,0,0,1-.837-.269,3.694,3.694,0,0,0-1.4-.37,4.974,4.974,0,0,0-1.53.356,3.6,3.6,0,0,1-1.025.283.563.563,0,0,1-.267-.105c-.12-.068-.239-.147-.358-.219a1.913,1.913,0,0,0-.972-.315.639.639,0,0,0,0,1.278Z" transform="translate(-171.57 -279.945)" fill="#35a5e0" fill-rule="evenodd"/>
    <path id="Path_29751" data-name="Path 29751" d="M33.278,343.583v-7.027a1.278,1.278,0,0,1,1.278-1.278h0a1.278,1.278,0,0,1,1.278,1.278v1.917a.639.639,0,1,0,1.278,0v-1.917A2.556,2.556,0,0,0,34.555,334h0A2.555,2.555,0,0,0,32,336.555v7.027a.639.639,0,1,0,1.278,0Z" transform="translate(-26.25 -331.445)" fill="#e1953c" fill-rule="evenodd"/>
    <path id="Path_29752" data-name="Path 29752" d="M33.278,343.583v-7.027a1.278,1.278,0,0,1,1.278-1.278h0a1.278,1.278,0,0,1,1.278,1.278v1.917a.639.639,0,1,0,1.278,0v-1.917A2.556,2.556,0,0,0,34.555,334h0A2.555,2.555,0,0,0,32,336.555v7.027a.639.639,0,1,0,1.278,0Z" transform="translate(-19.862 -331.445)" fill="#e1953c" fill-rule="evenodd"/>
    <path id="Path_29753" data-name="Path 29753" d="M18.639,353.278h6.389a.639.639,0,0,0,0-1.278H18.639a.639.639,0,0,0,0,1.278Z" transform="translate(-12.25 -343.056)" fill="#e1953c" fill-rule="evenodd"/>
    <path id="Path_29754" data-name="Path 29754" d="M5.278,723.278v4.472a.639.639,0,0,1-1.278,0v-5.111A.639.639,0,0,1,4.639,722h16.61a.639.639,0,0,1,.639.639v2.555a.639.639,0,0,1-1.278,0v-1.917Z" transform="translate(-2.722 -715.611)" fill="#e1953c" fill-rule="evenodd"/>
  </g>
</svg>
