<svg xmlns="http://www.w3.org/2000/svg" width="19.754" height="19.754" viewBox="0 0 19.754 19.754">
  <g id="_06" data-name="06" transform="translate(-1231 -1493)">
    <g id="Outer_Lines" data-name="Outer Lines" transform="translate(1230.713 1493)">
      <path id="Path_29755" data-name="Path 29755" d="M16.567.95A3.959,3.959,0,0,0,14,0h-.016a4,4,0,0,0-2.828,6.833l4.716,4.729a.988.988,0,0,0,1.4,0l4.717-4.729A4,4,0,0,0,16.567.95ZM22.5,4V4a3.323,3.323,0,0,1-.975,2.367L16.809,11.1a.339.339,0,0,1-.468,0L11.624,6.369a3.36,3.36,0,0,1,0-4.732A3.306,3.306,0,0,1,13.973.658H14a3.305,3.305,0,0,1,2.14.79.666.666,0,0,0,.868,0A3.333,3.333,0,0,1,22.5,4Z" transform="translate(-6.697)" fill="#5abef2"/>
      <path id="Path_29756" data-name="Path 29756" d="M5.858,5.251a2,2,0,0,1,1.414-.593.329.329,0,1,0,0-.658,2.649,2.649,0,0,0-1.88.784,2.7,2.7,0,0,0,0,3.8.329.329,0,0,0,.468-.463,2.039,2.039,0,0,1,0-2.871ZM12,5.374A11.455,11.455,0,0,0,8.889,9.595a3.86,3.86,0,0,0-1.181-.9.329.329,0,0,0-.273.6,2.993,2.993,0,0,1,1.231,1.116.329.329,0,0,0,.289.171h.018a.329.329,0,0,0,.286-.2c.013-.033,1.368-3.277,3.107-4.463A.329.329,0,0,0,12,5.375Z" transform="translate(0 -2.683)" fill="#5abef2"/>
    </g>
    <g id="_06._Fitness" data-name="06. Fitness" transform="translate(1224 1483.074)">
      <rect id="Rectangle_17648" data-name="Rectangle 17648" width="6.827" height="2.56" transform="translate(13.335 23.706)" fill="#e1953c"/>
      <path id="Path_29757" data-name="Path 29757" d="M25.964,26.048v2.225a1.178,1.178,0,0,0,0-2.225ZM7,27.161a1.183,1.183,0,0,0,.79,1.112V26.048A1.183,1.183,0,0,0,7,27.161Zm1.185-1.975v3.951A1.187,1.187,0,0,0,9.37,30.321h.4V24h-.4A1.187,1.187,0,0,0,8.185,25.185Z" transform="translate(0 -1.752)" fill="#e1953c"/>
      <rect id="Rectangle_17649" data-name="Rectangle 17649" width="3.413" height="8.533" rx="1.707" transform="translate(9.922 21.146)" fill="#e1953c"/>
      <path id="Path_29758" data-name="Path 29758" d="M50.4,24H50v6.321h.4a1.187,1.187,0,0,0,1.185-1.185V25.185A1.187,1.187,0,0,0,50.4,24Z" transform="translate(-26.012 -1.752)" fill="#e1953c"/>
      <rect id="Rectangle_17650" data-name="Rectangle 17650" width="3.413" height="8.533" rx="1.707" transform="translate(20.162 21.146)" fill="#e1953c"/>
    </g>
  </g>
</svg>
